SplineFontDB: 3.2
FontName: Guttural
FullName: Guttural
FamilyName: Guttural
Weight: Book
Copyright: Guttural (c) (Meztone Design). 2007. All Rights Reserved
Version: 1.00 April 3, 2007, initial release
ItalicAngle: 0
UnderlinePosition: -292
UnderlineWidth: 150
Ascent: 1638
Descent: 410
InvalidEm: 0
sfntRevision: 0x00010000
LayerCount: 2
Layer: 0 1 "Back" 1
Layer: 1 1 "Fore" 0
XUID: [1021 811 -1780499127 23465]
StyleMap: 0x0040
FSType: 8
OS2Version: 1
OS2_WeightWidthSlopeOnly: 0
OS2_UseTypoMetrics: 0
CreationTime: 1175636925
ModificationTime: 1644860274
PfmFamily: 17
TTFWeight: 400
TTFWidth: 5
LineGap: 67
VLineGap: 0
Panose: 2 0 0 0 0 0 0 0 0 0
OS2TypoAscent: 1491
OS2TypoAOffset: 0
OS2TypoDescent: -431
OS2TypoDOffset: 0
OS2TypoLinegap: 307
OS2WinAscent: 1854
OS2WinAOffset: 0
OS2WinDescent: 434
OS2WinDOffset: 0
HheadAscent: 1854
HheadAOffset: 0
HheadDescent: -434
HheadDOffset: 0
OS2SubXSize: 1434
OS2SubYSize: 1331
OS2SubXOff: 0
OS2SubYOff: 283
OS2SupXSize: 1434
OS2SupYSize: 1331
OS2SupXOff: 0
OS2SupYOff: 977
OS2StrikeYSize: 102
OS2StrikeYPos: 530
OS2Vendor: 'HL  '
OS2CodePages: 6000019f.dff70000
OS2UnicodeRanges: a00002af.500078fb.00000000.00000000
DEI: 91125
ShortTable: maxp 16
  1
  0
  653
  173
  17
  0
  0
  2
  16
  47
  66
  0
  1036
  0
  0
  0
EndShort
LangName: 1033 "Guttural +AKkA (Meztone Design). 2007. All Rights Reserved" "" "Regular" "Guttural:Version 1.00" "" "Version 1.00 April 3, 2007, initial release" "" "" "" "" "This font was created using FontCreator 5.5 from High-Logic.com"
LangName: 1027 "" "" "Normal"
LangName: 1029 "" "" "oby+AQ0A-ejn+AOkA"
LangName: 1030 "" "" "normal"
LangName: 1031 "" "" "Standard"
LangName: 1032 "" "" "+A5oDsQO9A78DvQO5A7oDrAAA"
LangName: 1034 "" "" "Normal"
LangName: 1035 "" "" "Normaali"
LangName: 1036 "" "" "Normal"
LangName: 1038 "" "" "Norm+AOEA-l"
LangName: 1040 "" "" "Normale"
LangName: 1043 "" "" "Standaard"
LangName: 1044 "" "" "Normal"
LangName: 1045 "" "" "Normalny"
LangName: 1046 "" "" "Normal"

StartChar: .notdef
Encoding: 65536 -1 0
Width: 1536
Flags: W
LayerCount: 2
Fore
SplineSet
256 0 m 1,0,-1
 256 1280 l 1,1,-1
 1280 1280 l 1,2,-1
 1280 0 l 1,3,-1
 256 0 l 1,0,-1
288 32 m 1,4,-1
 1248 32 l 1,5,-1
 1248 1248 l 1,6,-1
 288 1248 l 1,7,-1
 288 32 l 1,4,-1
EndSplineSet
Validated: 1
EndChar

StartChar: exclam
Encoding: 33 33 4
Width: 655
Flags: W
LayerCount: 2
Fore
SplineSet
641 1852 m 2,0,-1
 659 1852 l 1,1,-1
 659 1834 l 1,2,-1
 534 1710 l 1,3,-1
 534 1692 l 1,4,-1
 623 1710 l 1,5,-1
 623 1692 l 1,6,7
 447 1482 447 1482 410 1104 c 1,8,-1
 410 1051 l 1,9,10
 434 801 434 801 499 801 c 2,11,-1
 516 801 l 1,12,13
 605 853 605 853 605 908 c 1,14,-1
 641 908 l 1,15,-1
 641 890 l 2,16,17
 641 733 641 733 392 499 c 1,18,-1
 125 392 l 1,19,-1
 125 410 l 1,20,-1
 214 516 l 1,21,-1
 214 588 l 1,22,23
 18 775 18 775 18 873 c 2,24,-1
 18 944 l 1,25,-1
 53 1104 l 1,26,-1
 89 1104 l 1,27,-1
 89 997 l 1,28,-1
 107 908 l 1,29,30
 184 908 184 908 196 1158 c 1,31,-1
 196 1282 l 2,32,33
 196 1488 196 1488 0 1567 c 1,34,-1
 0 1603 l 1,35,36
 274 1852 274 1852 641 1852 c 2,0,-1
481 481 m 1,37,-1
 481 445 l 1,38,-1
 445 321 l 1,39,-1
 463 321 l 1,40,-1
 588 427 l 1,41,-1
 605 427 l 1,42,-1
 605 410 l 1,43,44
 463 165 463 165 410 0 c 1,45,-1
 392 0 l 1,46,47
 342 89 342 89 249 89 c 1,48,-1
 89 36 l 1,49,-1
 107 125 l 1,50,-1
 107 178 l 1,51,-1
 71 321 l 1,52,-1
 89 338 l 1,53,-1
 196 303 l 1,54,-1
 232 303 l 2,55,56
 342 303 342 303 481 481 c 1,37,-1
EndSplineSet
Validated: 1
EndChar

StartChar: parenleft
Encoding: 40 40 11
Width: 729
Flags: W
LayerCount: 2
Fore
SplineSet
746 1852 m 1,0,-1
 746 1843 l 1,1,2
 419 1397 419 1397 419 1009 c 1,3,4
 444 883 444 883 691 700 c 1,5,-1
 696 700 l 1,6,-1
 696 691 l 1,7,8
 468 739 468 739 364 834 c 1,9,-1
 364 829 l 2,10,11
 364 625 364 625 604 203 c 1,12,-1
 733 5 l 1,13,-1
 728 0 l 1,14,-1
 723 0 l 1,15,16
 366 337 366 337 276 585 c 1,17,18
 214 706 214 706 175 931 c 1,19,20
 101 998 101 998 0 1262 c 1,21,22
 168 1078 168 1078 226 1078 c 2,23,-1
 230 1078 l 1,24,25
 230 1359 230 1359 746 1852 c 1,0,-1
EndSplineSet
Validated: 1
EndChar

StartChar: parenright
Encoding: 41 41 12
Width: 748
Flags: W
LayerCount: 2
Fore
SplineSet
0 1852 m 1,0,1
 517 1365 517 1365 517 1076 c 1,2,-1
 522 1076 l 2,3,4
 584 1076 584 1076 748 1261 c 1,5,-1
 753 1261 l 1,6,-1
 753 1256 l 1,7,8
 630 965 630 965 568 919 c 1,9,10
 568 706 568 706 346 351 c 0,11,12
 262 211 262 211 23 0 c 1,13,-1
 18 0 l 1,14,-1
 18 5 l 1,15,16
 383 547 383 547 383 831 c 1,17,18
 258 726 258 726 55 688 c 1,19,-1
 55 693 l 1,20,21
 328 912 328 912 328 998 c 2,22,-1
 328 1048 l 2,23,24
 328 1388 328 1388 0 1847 c 1,25,-1
 0 1852 l 1,0,1
EndSplineSet
Validated: 1
EndChar

StartChar: plus
Encoding: 43 43 14
Width: 1196
Flags: W
LayerCount: 2
Fore
SplineSet
595 1838 m 1,0,-1
 601 1838 l 1,1,2
 705 1646 705 1646 839 1646 c 1,3,-1
 842 1649 l 1,4,-1
 858 1649 l 1,5,-1
 864 1643 l 1,6,7
 745 1584 745 1584 745 1545 c 2,8,-1
 745 1536 l 2,9,10
 745 1510 745 1510 796 1456 c 1,11,-1
 800 1441 l 1,12,-1
 800 1438 l 1,13,14
 779 1459 779 1459 766 1459 c 2,15,-1
 760 1459 l 2,16,17
 737 1459 737 1459 732 1429 c 1,18,-1
 732 1365 l 1,19,-1
 735 1365 l 1,20,21
 877 1414 877 1414 934 1414 c 2,22,-1
 943 1414 l 1,23,-1
 943 1411 l 1,24,25
 937 1403 937 1403 867 1374 c 1,26,27
 758 1303 758 1303 723 1197 c 1,28,29
 711 1134 711 1134 711 1084 c 2,30,-1
 711 1060 l 1,31,32
 726 831 726 831 751 831 c 0,33,34
 800 831 800 831 842 928 c 1,35,-1
 845 928 l 1,36,-1
 848 925 l 1,37,-1
 848 901 l 2,38,39
 848 837 848 837 793 785 c 1,40,41
 861 770 861 770 903 770 c 0,42,43
 960 770 960 770 995 806 c 1,44,-1
 995 812 l 2,45,46
 995 827 995 827 973 843 c 1,47,-1
 977 846 l 1,48,-1
 977 849 l 1,49,50
 1074 814 1074 814 1074 782 c 1,51,52
 1146 698 1146 698 1181 690 c 1,53,-1
 1181 681 l 1,54,55
 1125 659 1125 659 1053 559 c 1,56,57
 999 523 999 523 977 523 c 1,58,-1
 973 526 l 1,59,-1
 973 529 l 1,60,61
 995 542 995 542 995 559 c 2,62,-1
 995 565 l 2,63,64
 995 587 995 587 903 602 c 1,65,66
 866 602 866 602 796 587 c 1,67,68
 851 536 851 536 851 449 c 1,69,-1
 845 443 l 1,70,71
 798 541 798 541 751 541 c 1,72,73
 714 529 714 529 714 431 c 0,74,75
 714 326 714 326 751 318 c 1,76,77
 762 306 762 306 787 306 c 0,78,79
 804 306 804 306 815 355 c 1,80,-1
 818 355 l 1,81,-1
 824 349 l 1,82,-1
 824 333 l 2,83,84
 824 270 824 270 763 251 c 0,85,86
 681 226 681 226 638 159 c 1,87,88
 610 107 610 107 595 16 c 1,89,-1
 592 16 l 1,90,91
 577 115 577 115 543 169 c 0,92,93
 510 226 510 226 400 260 c 1,94,95
 363 286 363 286 363 339 c 1,96,-1
 366 355 l 1,97,-1
 369 355 l 1,98,-1
 388 312 l 1,99,-1
 409 306 l 1,100,101
 431 306 431 306 464 343 c 1,102,103
 473 368 473 368 473 434 c 0,104,105
 473 527 473 527 439 541 c 1,106,107
 385 541 385 541 345 443 c 1,108,-1
 342 443 l 1,109,-1
 336 458 l 1,110,111
 336 529 336 529 391 587 c 1,112,113
 336 599 336 599 284 602 c 0,114,115
 230 602 230 602 189 565 c 1,116,-1
 189 562 l 2,117,118
 189 551 189 551 211 529 c 1,119,-1
 211 523 l 1,120,121
 166 523 166 523 113 584 c 1,122,123
 66 651 66 651 0 687 c 1,124,-1
 0 690 l 1,125,126
 65 718 65 718 137 819 c 1,127,128
 187 850 187 850 211 852 c 1,129,-1
 214 849 l 1,130,-1
 214 846 l 1,131,-1
 192 822 l 1,132,-1
 192 809 l 1,133,134
 227 773 227 773 284 773 c 0,135,136
 323 773 323 773 394 788 c 1,137,138
 339 841 339 841 339 904 c 2,139,-1
 339 928 l 1,140,-1
 348 928 l 1,141,142
 385 834 385 834 433 834 c 2,143,-1
 439 834 l 1,144,145
 464 847 464 847 479 1063 c 1,146,-1
 479 1078 l 2,147,148
 479 1255 479 1255 375 1334 c 1,149,150
 317 1389 317 1389 244 1411 c 1,151,-1
 244 1414 l 1,152,-1
 247 1417 l 1,153,-1
 262 1417 l 2,154,155
 313 1417 313 1417 461 1365 c 1,156,-1
 461 1408 l 2,157,158
 461 1459 461 1459 427 1459 c 0,159,160
 418 1459 418 1459 394 1438 c 1,161,-1
 391 1441 l 1,162,-1
 391 1444 l 1,163,-1
 442 1511 l 1,164,-1
 449 1536 l 1,165,166
 449 1585 449 1585 333 1636 c 1,167,-1
 330 1639 l 1,168,-1
 330 1643 l 1,169,-1
 333 1646 l 1,170,-1
 354 1646 l 2,171,172
 485 1646 485 1646 595 1838 c 1,0,-1
EndSplineSet
Validated: 1
EndChar

StartChar: comma
Encoding: 44 44 15
Width: 569
Flags: W
LayerCount: 2
Fore
SplineSet
216 617 m 1,0,1
 278 521 278 521 360 521 c 2,2,-1
 368 521 l 2,3,4
 431 521 431 521 520 585 c 1,5,-1
 528 585 l 1,6,7
 500 497 500 497 500 445 c 0,8,9
 500 376 500 376 548 285 c 1,10,-1
 544 281 l 1,11,12
 477 321 477 321 416 321 c 2,13,-1
 392 321 l 2,14,15
 260 321 260 321 136 109 c 1,16,-1
 128 109 l 1,17,-1
 128 113 l 1,18,19
 184 230 184 230 184 289 c 2,20,-1
 184 293 l 1,21,-1
 176 301 l 1,22,-1
 172 301 l 1,23,24
 110 280 110 280 12 169 c 1,25,-1
 8 169 l 1,26,-1
 8 173 l 1,27,28
 191 462 191 462 212 617 c 1,29,-1
 216 617 l 1,0,1
EndSplineSet
Validated: 1
EndChar

StartChar: period
Encoding: 46 46 17
Width: 468
Flags: W
LayerCount: 2
Fore
SplineSet
252 643 m 1,0,-1
 256 643 l 1,1,2
 304 553 304 553 372 483 c 1,3,-1
 468 411 l 1,4,5
 307 317 307 317 244 187 c 1,6,-1
 240 187 l 1,7,-1
 208 251 l 1,8,9
 127 361 127 361 8 411 c 1,10,-1
 8 423 l 1,11,12
 198 515 198 515 252 643 c 1,0,-1
EndSplineSet
Validated: 1
EndChar

StartChar: slash
Encoding: 47 47 18
Width: 772
Flags: W
LayerCount: 2
Fore
SplineSet
708 1844 m 1,0,-1
 712 1844 l 1,1,-1
 712 1785 l 2,2,3
 712 1643 712 1643 771 1538 c 1,4,5
 681 1506 681 1506 633 1421 c 1,6,7
 402 756 402 756 260 306 c 1,8,-1
 260 302 l 2,9,10
 260 215 260 215 319 122 c 1,11,-1
 92 25 l 1,12,-1
 71 0 l 1,13,-1
 67 0 l 1,14,-1
 71 21 l 1,15,-1
 71 50 l 2,16,17
 71 122 71 122 0 256 c 1,18,-1
 0 260 l 1,19,20
 121 302 121 302 168 386 c 1,21,-1
 528 1484 l 1,22,-1
 528 1525 l 2,23,24
 528 1561 528 1561 478 1626 c 1,25,26
 588 1687 588 1687 616 1735 c 1,27,-1
 708 1844 l 1,0,-1
EndSplineSet
Validated: 1
EndChar

StartChar: zero
Encoding: 48 48 19
Width: 1224
Flags: W
LayerCount: 2
Fore
SplineSet
789 1852 m 1,0,-1
 795 1846 l 1,1,-1
 795 1840 l 1,2,3
 200 1404 200 1404 200 1008 c 1,4,5
 235 680 235 680 364 680 c 1,6,-1
 413 674 l 1,7,8
 660 674 660 674 1020 1239 c 1,9,-1
 1020 1227 l 1,10,11
 932 1010 932 1010 777 783 c 1,12,13
 552 534 552 534 443 510 c 1,14,-1
 316 474 l 1,15,16
 367 243 367 243 528 243 c 0,17,18
 811 243 811 243 1075 771 c 1,19,20
 1111 904 1111 904 1111 1057 c 0,21,22
 1111 1367 1111 1367 880 1731 c 1,23,24
 1227 1444 1227 1444 1227 1008 c 2,25,-1
 1227 899 l 2,26,27
 1227 206 1227 206 741 24 c 1,28,29
 658 0 658 0 619 0 c 2,30,-1
 498 0 l 2,31,32
 302 0 302 0 128 225 c 1,33,34
 0 426 0 426 0 850 c 0,35,36
 0 1599 0 1599 668 1822 c 1,37,-1
 789 1852 l 1,0,-1
EndSplineSet
Validated: 1
EndChar

StartChar: one
Encoding: 49 49 20
Width: 1139
Flags: W
LayerCount: 2
Fore
SplineSet
577 1852 m 1,0,-1
 592 1852 l 1,1,-1
 592 1847 l 1,2,3
 668 1066 668 1066 668 561 c 1,4,5
 734 592 734 592 811 592 c 0,6,7
 920 592 920 592 1143 551 c 1,8,-1
 1143 541 l 1,9,10
 689 472 689 472 383 276 c 1,11,12
 247 198 247 198 31 0 c 1,13,-1
 26 0 l 1,14,-1
 26 5 l 1,15,16
 121 203 121 203 291 388 c 1,17,-1
 403 495 l 1,18,19
 434 693 434 693 434 929 c 2,20,-1
 434 990 l 2,21,22
 434 1144 434 1144 413 1398 c 1,23,-1
 408 1398 l 1,24,25
 264 1259 264 1259 0 1204 c 1,26,27
 136 1275 136 1275 260 1378 c 1,28,29
 497 1633 497 1633 577 1852 c 1,0,-1
EndSplineSet
Validated: 1
EndChar

StartChar: two
Encoding: 50 50 21
Width: 1680
Flags: W
LayerCount: 2
Fore
SplineSet
981 1847 m 0,0,1
 1210 1847 1210 1847 1275 1635 c 1,2,-1
 1286 1553 l 1,3,4
 1286 1215 1286 1215 861 692 c 1,5,-1
 861 687 l 1,6,-1
 866 687 l 1,7,8
 1004 719 1004 719 1139 719 c 2,9,-1
 1161 719 l 2,10,11
 1446 719 1446 719 1711 539 c 1,12,-1
 1711 529 l 1,13,-1
 1706 529 l 1,14,15
 1504 556 1504 556 1362 556 c 2,16,-1
 1346 556 l 2,17,18
 658 556 658 556 147 0 c 1,19,-1
 142 5 l 1,20,21
 174 174 174 174 245 327 c 1,22,23
 266 400 266 400 398 507 c 1,24,25
 1008 1113 1008 1113 1008 1444 c 1,26,27
 985 1618 985 1618 817 1618 c 1,28,-1
 779 1624 l 1,29,30
 495 1624 495 1624 11 1319 c 1,31,-1
 0 1319 l 1,32,33
 568 1847 568 1847 981 1847 c 0,0,1
EndSplineSet
Validated: 1
EndChar

StartChar: three
Encoding: 51 51 22
Width: 1341
Flags: W
LayerCount: 2
Fore
SplineSet
1034 1852 m 1,0,-1
 1039 1852 l 1,1,-1
 797 1138 l 1,2,-1
 803 1138 l 2,3,4
 1186 1138 1186 1138 1312 908 c 1,5,6
 1338 845 1338 845 1338 792 c 2,7,-1
 1338 771 l 2,8,9
 1338 446 1338 446 803 168 c 1,10,11
 384 0 384 0 247 0 c 1,12,-1
 247 10 l 1,13,14
 623 130 623 130 950 425 c 1,15,16
 1104 609 1104 609 1107 729 c 2,17,-1
 1107 776 l 2,18,19
 1107 920 1107 920 929 965 c 1,20,-1
 860 971 l 1,21,-1
 839 971 l 2,22,23
 728 971 728 971 556 897 c 1,24,-1
 551 902 l 1,25,-1
 551 908 l 1,26,27
 694 1074 694 1074 745 1296 c 1,28,-1
 761 1406 l 1,29,30
 589 1287 589 1287 435 1222 c 1,31,32
 171 1138 171 1138 0 1138 c 1,33,-1
 0 1149 l 1,34,35
 395 1245 395 1245 750 1548 c 1,36,37
 936 1726 936 1726 1034 1852 c 1,0,-1
EndSplineSet
Validated: 1
EndChar

StartChar: four
Encoding: 52 52 23
Width: 1232
Flags: W
LayerCount: 2
Fore
SplineSet
1137 1848 m 1,0,-1
 1137 1824 l 1,1,2
 534 1040 534 1040 403 640 c 1,3,-1
 426 640 l 1,4,5
 583 711 583 711 758 711 c 1,6,-1
 758 734 l 1,7,-1
 782 1137 l 1,8,-1
 829 1137 l 1,9,-1
 877 734 l 1,10,-1
 900 758 l 1,11,-1
 948 758 l 1,12,-1
 1232 734 l 1,13,-1
 1232 687 l 1,14,15
 782 575 782 575 782 332 c 1,16,-1
 592 0 l 1,17,-1
 569 0 l 1,18,-1
 687 521 l 1,19,20
 377 521 377 521 24 142 c 1,21,-1
 0 166 l 1,22,-1
 0 190 l 1,23,24
 24 799 24 799 1114 1848 c 1,25,-1
 1137 1848 l 1,0,-1
EndSplineSet
Validated: 1
EndChar

StartChar: five
Encoding: 53 53 24
Width: 1551
Flags: W
LayerCount: 2
Fore
SplineSet
1602 1851 m 1,0,1
 1361 1670 1361 1670 969 1515 c 0,2,3
 843 1461 843 1461 586 1394 c 1,4,-1
 458 1171 l 1,5,-1
 505 1178 l 1,6,-1
 633 1178 l 2,7,8
 1143 1178 1143 1178 1266 842 c 1,9,-1
 1279 741 l 1,10,-1
 1279 714 l 2,11,12
 1279 369 1279 369 889 88 c 1,13,14
 739 0 739 0 640 0 c 2,15,-1
 539 0 l 2,16,17
 299 0 299 0 81 350 c 1,18,19
 0 505 0 505 0 532 c 2,20,-1
 0 539 l 1,21,22
 322 222 322 222 586 222 c 2,23,-1
 592 222 l 2,24,25
 838 222 838 222 936 512 c 1,26,-1
 949 613 l 1,27,28
 949 897 949 897 660 956 c 1,29,-1
 599 963 l 1,30,31
 388 963 388 963 54 781 c 1,32,-1
 47 781 l 1,33,34
 190 1355 190 1355 491 1616 c 1,35,-1
 572 1616 l 2,36,37
 1030 1616 1030 1616 1602 1851 c 1,0,1
EndSplineSet
Validated: 1
EndChar

StartChar: six
Encoding: 54 54 25
Width: 1579
Flags: W
LayerCount: 2
Fore
SplineSet
1596 1844 m 1,0,-1
 1596 1837 l 2,1,2
 1596 1826 1596 1826 1383 1741 c 1,3,4
 1048 1593 1048 1593 757 1342 c 1,5,6
 617 1187 617 1187 605 1087 c 1,7,-1
 612 1087 l 1,8,-1
 640 1094 l 1,9,-1
 764 1094 l 2,10,11
 1221 1094 1221 1094 1349 867 c 0,12,13
 1383 807 1383 807 1383 743 c 2,14,-1
 1383 702 l 2,15,16
 1383 425 1383 425 998 124 c 1,17,18
 813 0 813 0 681 0 c 2,19,-1
 605 0 l 2,20,21
 341 0 341 0 248 440 c 1,22,23
 227 562 227 562 227 702 c 2,24,-1
 227 791 l 1,25,-1
 0 709 l 1,26,-1
 0 716 l 1,27,28
 303 1005 303 1005 303 1025 c 1,29,30
 447 1384 447 1384 1032 1644 c 1,31,32
 1306 1761 1306 1761 1596 1844 c 1,0,-1
502 839 m 1,33,-1
 489 640 l 1,34,35
 489 289 489 289 667 289 c 0,36,37
 840 289 840 289 1115 523 c 1,38,39
 1163 602 1163 602 1163 647 c 0,40,41
 1163 833 1163 833 743 867 c 1,42,-1
 729 867 l 1,43,44
 557 858 557 858 502 839 c 1,33,-1
EndSplineSet
Validated: 1
EndChar

StartChar: seven
Encoding: 55 55 26
Width: 1458
Flags: W
LayerCount: 2
Fore
SplineSet
1466 1852 m 1,0,1
 1125 1404 1125 1404 966 1081 c 1,2,3
 763 713 763 713 512 23 c 1,4,-1
 506 0 l 1,5,-1
 495 0 l 1,6,7
 707 975 707 975 851 1346 c 1,8,-1
 845 1346 l 1,9,10
 710 1328 710 1328 581 1328 c 2,11,-1
 529 1328 l 2,12,13
 270 1328 270 1328 0 1363 c 1,14,-1
 0 1374 l 1,15,-1
 6 1374 l 2,16,17
 503 1374 503 1374 1311 1771 c 1,18,19
 1437 1852 1437 1852 1466 1852 c 1,0,1
EndSplineSet
Validated: 1
EndChar

StartChar: eight
Encoding: 56 56 27
Width: 1204
Flags: W
LayerCount: 2
Fore
SplineSet
796 1852 m 1,0,-1
 809 1852 l 1,1,2
 847 1593 847 1593 904 1593 c 1,3,4
 981 1523 981 1523 1119 1523 c 2,5,-1
 1207 1523 l 1,6,-1
 1207 1511 l 1,7,8
 1086 1460 1086 1460 1024 1460 c 0,9,10
 935 1460 935 1460 847 1517 c 1,11,-1
 847 1460 l 2,12,13
 847 1306 847 1306 689 1087 c 1,14,15
 879 771 879 771 879 525 c 0,16,17
 879 114 879 114 518 13 c 1,18,19
 490 0 490 0 436 0 c 2,20,-1
 322 0 l 2,21,22
 186 0 186 0 63 183 c 1,23,24
 0 312 0 312 0 499 c 0,25,26
 0 872 0 872 405 1062 c 1,27,-1
 405 1068 l 1,28,29
 196 1300 196 1300 196 1447 c 2,30,-1
 196 1454 l 2,31,32
 196 1602 196 1602 348 1770 c 1,33,34
 416 1827 416 1827 468 1827 c 2,35,-1
 506 1827 l 2,36,37
 614 1827 614 1827 784 1688 c 1,38,-1
 796 1852 l 1,0,-1
392 1460 m 2,39,-1
 392 1447 l 2,40,41
 392 1319 392 1319 537 1169 c 1,42,43
 733 1363 733 1363 733 1587 c 1,44,45
 614 1707 614 1707 563 1707 c 2,46,-1
 537 1707 l 1,47,48
 392 1594 392 1594 392 1460 c 2,39,-1
158 518 m 0,49,50
 158 307 158 307 341 240 c 1,51,-1
 411 228 l 1,52,53
 636 228 636 228 714 449 c 1,54,-1
 727 512 l 1,55,56
 727 696 727 696 550 923 c 1,57,-1
 544 929 l 1,58,59
 544 942 544 942 525 942 c 1,60,61
 158 751 158 751 158 518 c 0,49,50
EndSplineSet
Validated: 1
EndChar

StartChar: nine
Encoding: 57 57 28
Width: 1231
Flags: W
LayerCount: 2
Fore
SplineSet
737 1852 m 2,0,-1
 792 1852 l 2,1,2
 1041 1852 1041 1852 1151 1410 c 1,3,-1
 1151 1106 l 1,4,5
 1117 746 1117 746 875 746 c 2,6,-1
 820 746 l 2,7,8
 644 746 644 746 322 995 c 1,9,-1
 294 967 l 1,10,-1
 294 912 l 2,11,12
 294 561 294 561 571 0 c 1,13,-1
 516 0 l 1,14,15
 101 688 101 688 101 995 c 1,16,-1
 129 1354 l 1,17,-1
 101 1631 l 1,18,-1
 156 1631 l 1,19,20
 176 1493 176 1493 239 1493 c 1,21,22
 529 1852 529 1852 737 1852 c 2,0,-1
405 1216 m 1,23,24
 617 1050 617 1050 792 1050 c 2,25,-1
 875 1050 l 1,26,-1
 958 1133 l 1,27,28
 958 1496 958 1496 654 1576 c 1,29,-1
 626 1576 l 2,30,31
 516 1576 516 1576 405 1216 c 1,23,24
EndSplineSet
Validated: 1
EndChar

StartChar: colon
Encoding: 58 58 29
Width: 452
Flags: W
LayerCount: 2
Fore
SplineSet
241 1481 m 1,0,-1
 245 1481 l 1,1,2
 300 1382 300 1382 361 1321 c 1,3,-1
 457 1249 l 1,4,5
 359 1194 359 1194 289 1113 c 1,6,-1
 229 1029 l 1,7,-1
 181 1113 l 1,8,9
 62 1235 62 1235 -3 1249 c 1,10,-1
 -3 1261 l 1,11,12
 187 1353 187 1353 241 1481 c 1,0,-1
245 793 m 1,13,14
 308 647 308 647 453 561 c 1,15,-1
 453 557 l 1,16,17
 303 482 303 482 229 337 c 1,18,-1
 225 337 l 1,19,-1
 173 429 l 1,20,21
 68 536 68 536 -7 561 c 1,22,-1
 -7 565 l 1,23,-1
 93 629 l 1,24,25
 203 707 203 707 237 789 c 1,26,-1
 241 793 l 1,27,-1
 245 793 l 1,13,14
EndSplineSet
Validated: 1
EndChar

StartChar: semicolon
Encoding: 59 59 30
AltUni2: 00037e.ffffffff.0
Width: 534
Flags: W
LayerCount: 2
Fore
SplineSet
300 1450 m 1,0,-1
 304 1450 l 1,1,2
 349 1367 349 1367 400 1310 c 1,3,4
 458 1255 458 1255 516 1218 c 1,5,6
 350 1121 350 1121 292 994 c 1,7,-1
 288 994 l 2,8,9
 283 994 283 994 252 1066 c 1,10,11
 149 1184 149 1184 56 1218 c 1,12,-1
 52 1222 l 1,13,-1
 52 1226 l 1,14,15
 254 1331 254 1331 300 1450 c 1,0,-1
208 770 m 1,16,17
 273 674 273 674 336 674 c 2,18,-1
 364 674 l 2,19,20
 424 674 424 674 516 738 c 1,21,-1
 520 734 l 1,22,-1
 520 730 l 1,23,24
 492 657 492 657 492 598 c 0,25,26
 492 526 492 526 540 438 c 1,27,-1
 536 434 l 1,28,29
 469 474 469 474 396 474 c 0,30,31
 249 474 249 474 128 262 c 1,32,-1
 120 262 l 1,33,-1
 120 266 l 1,34,35
 176 383 176 383 176 442 c 2,36,-1
 176 446 l 2,37,38
 176 454 176 454 164 454 c 0,39,40
 119 445 119 445 4 322 c 1,41,-1
 0 322 l 1,42,-1
 0 326 l 1,43,44
 161 569 161 569 200 746 c 1,45,46
 200 770 200 770 208 770 c 1,16,17
EndSplineSet
Validated: 1
EndChar

StartChar: question
Encoding: 63 63 34
Width: 1099
Flags: W
LayerCount: 2
Fore
SplineSet
480 1848 m 0,0,1
 813 1848 813 1848 1048 1476 c 1,2,3
 1104 1373 1104 1373 1104 1352 c 1,4,5
 1042 1432 1042 1432 956 1432 c 0,6,7
 809 1432 809 1432 684 1172 c 1,8,9
 656 1092 656 1092 656 1024 c 0,10,11
 656 919 656 919 752 884 c 1,12,-1
 824 872 l 1,13,-1
 824 864 l 1,14,15
 548 688 548 688 436 388 c 1,16,-1
 428 388 l 1,17,18
 428 710 428 710 276 792 c 1,19,20
 221 816 221 816 200 816 c 1,21,-1
 200 824 l 1,22,23
 412 841 412 841 412 904 c 256,24,25
 412 967 412 967 180 1004 c 1,26,-1
 180 1008 l 1,27,-1
 356 1132 l 1,28,29
 636 1345 636 1345 636 1520 c 0,30,31
 636 1656 636 1656 488 1688 c 1,32,-1
 460 1688 l 2,33,34
 311 1688 311 1688 272 1488 c 1,35,-1
 268 1440 l 1,36,-1
 276 1356 l 1,37,-1
 272 1356 l 1,38,39
 202 1436 202 1436 152 1436 c 0,40,41
 75 1436 75 1436 8 1280 c 1,42,-1
 0 1280 l 1,43,-1
 0 1284 l 2,44,45
 0 1636 0 1636 260 1792 c 1,46,47
 366 1848 366 1848 480 1848 c 0,0,1
668 508 m 1,48,-1
 668 500 l 1,49,50
 616 388 616 388 616 340 c 2,51,-1
 616 320 l 1,52,-1
 628 316 l 1,53,54
 655 316 655 316 788 448 c 1,55,-1
 788 444 l 1,56,57
 618 182 618 182 588 4 c 1,58,-1
 584 0 l 1,59,-1
 580 0 l 1,60,61
 528 100 528 100 440 100 c 0,62,63
 374 100 374 100 272 36 c 1,64,-1
 272 40 l 1,65,66
 296 110 296 110 296 152 c 2,67,-1
 296 188 l 2,68,69
 296 248 296 248 252 336 c 1,70,-1
 256 336 l 1,71,72
 339 296 339 296 388 296 c 0,73,74
 538 296 538 296 664 508 c 1,75,-1
 668 508 l 1,48,-1
EndSplineSet
Validated: 1
EndChar

StartChar: at
Encoding: 64 64 35
Width: 1778
Flags: W
LayerCount: 2
Fore
SplineSet
1386 0 m 1,0,1
 1193 210 1193 210 1023 210 c 1,2,3
 889 126 889 126 889 29 c 1,4,-1
 884 29 l 2,5,6
 876 29 876 29 856 100 c 1,7,8
 777 206 777 206 726 206 c 0,9,10
 576 206 576 206 373 0 c 1,11,-1
 368 0 l 1,12,13
 445 230 445 230 588 306 c 1,14,-1
 674 339 l 1,15,-1
 540 808 l 1,16,-1
 483 808 l 2,17,18
 401 808 401 808 306 650 c 1,19,-1
 296 650 l 1,20,21
 342 880 342 880 420 947 c 1,22,-1
 473 975 l 1,23,-1
 420 1133 l 1,24,-1
 416 1133 l 2,25,26
 299 1133 299 1133 253 1028 c 1,27,-1
 253 1023 l 1,28,-1
 244 1023 l 1,29,-1
 239 1047 l 1,30,-1
 239 1052 l 2,31,32
 239 1180 239 1180 358 1253 c 1,33,34
 336 1334 336 1334 315 1334 c 0,35,36
 168 1334 168 1334 4 1076 c 1,37,-1
 0 1076 l 1,38,-1
 0 1081 l 1,39,40
 28 1309 28 1309 177 1516 c 1,41,42
 340 1733 340 1733 731 1831 c 1,43,-1
 769 1836 l 1,44,-1
 769 1826 l 1,45,46
 530 1730 530 1730 530 1463 c 0,47,48
 530 1291 530 1291 660 1047 c 1,49,-1
 741 1047 l 2,50,51
 803 1047 803 1047 803 1090 c 1,52,53
 848 1142 848 1142 875 1425 c 1,54,-1
 884 1425 l 1,55,56
 884 1279 884 1279 966 1066 c 1,57,58
 975 1066 975 1066 975 1052 c 1,59,-1
 1061 1052 l 1,60,-1
 1109 1047 l 1,61,62
 1228 1308 1228 1308 1228 1473 c 2,63,-1
 1228 1511 l 2,64,65
 1228 1719 1228 1719 999 1826 c 1,66,-1
 999 1836 l 1,67,-1
 1004 1836 l 1,68,69
 1157 1819 1157 1819 1381 1697 c 1,70,71
 1631 1546 1631 1546 1735 1214 c 1,72,-1
 1764 1076 l 1,73,-1
 1759 1076 l 1,74,75
 1589 1334 1589 1334 1472 1334 c 2,76,-1
 1439 1334 l 2,77,78
 1431 1334 1431 1334 1415 1286 c 1,79,80
 1406 1285 1406 1285 1401 1257 c 1,81,-1
 1405 1257 l 1,82,83
 1520 1174 1520 1174 1520 1076 c 2,84,-1
 1520 1033 l 1,85,-1
 1511 1023 l 1,86,87
 1511 1068 1511 1068 1420 1124 c 1,88,89
 1375 1138 1375 1138 1343 1138 c 1,90,91
 1295 1011 1295 1011 1295 975 c 1,92,93
 1353 975 1353 975 1429 798 c 1,94,-1
 1468 655 l 1,95,-1
 1463 655 l 1,96,97
 1352 813 1352 813 1267 813 c 2,98,-1
 1228 813 l 1,99,100
 1209 794 1209 794 1090 339 c 1,101,102
 1178 339 1178 339 1305 191 c 1,103,104
 1367 86 1367 86 1396 5 c 1,105,-1
 1391 0 l 1,106,-1
 1386 0 l 1,0,1
889 402 m 1,107,-1
 1047 827 l 1,108,-1
 1032 827 l 1,109,-1
 951 832 l 1,110,111
 912 777 912 777 894 626 c 1,112,-1
 884 626 l 2,113,114
 876 626 876 626 860 751 c 1,115,116
 832 827 832 827 813 827 c 2,117,-1
 726 822 l 1,118,-1
 726 818 l 1,119,-1
 879 402 l 1,120,-1
 889 402 l 1,107,-1
EndSplineSet
Validated: 1
EndChar

StartChar: A
Encoding: 65 65 36
Width: 1778
Flags: W
LayerCount: 2
Fore
SplineSet
378 1836 m 1,0,1
 571 1626 571 1626 741 1626 c 1,2,3
 875 1710 875 1710 875 1807 c 1,4,-1
 880 1807 l 2,5,6
 888 1807 888 1807 908 1736 c 1,7,8
 987 1630 987 1630 1038 1630 c 0,9,10
 1188 1630 1188 1630 1391 1836 c 1,11,-1
 1396 1836 l 1,12,13
 1319 1606 1319 1606 1176 1530 c 1,14,-1
 1090 1497 l 1,15,-1
 1224 1028 l 1,16,-1
 1281 1028 l 2,17,18
 1363 1028 1363 1028 1458 1186 c 1,19,-1
 1468 1186 l 1,20,21
 1422 956 1422 956 1344 889 c 1,22,-1
 1291 861 l 1,23,-1
 1344 703 l 1,24,-1
 1348 703 l 2,25,26
 1465 703 1465 703 1511 808 c 1,27,-1
 1511 813 l 1,28,-1
 1520 813 l 1,29,-1
 1525 789 l 1,30,-1
 1525 784 l 2,31,32
 1525 656 1525 656 1406 583 c 1,33,34
 1428 502 1428 502 1449 502 c 0,35,36
 1596 502 1596 502 1760 760 c 1,37,-1
 1764 760 l 1,38,-1
 1764 755 l 1,39,40
 1736 527 1736 527 1587 320 c 1,41,42
 1424 103 1424 103 1033 5 c 1,43,-1
 995 0 l 1,44,-1
 995 10 l 1,45,46
 1234 106 1234 106 1234 373 c 0,47,48
 1234 545 1234 545 1104 789 c 1,49,-1
 1023 789 l 2,50,51
 961 789 961 789 961 746 c 1,52,53
 916 694 916 694 889 411 c 1,54,-1
 880 411 l 1,55,56
 880 557 880 557 798 770 c 1,57,58
 789 770 789 770 789 784 c 1,59,-1
 703 784 l 1,60,-1
 655 789 l 1,61,62
 536 528 536 528 536 363 c 2,63,-1
 536 325 l 2,64,65
 536 117 536 117 765 10 c 1,66,-1
 765 0 l 1,67,-1
 760 0 l 1,68,69
 607 17 607 17 383 139 c 1,70,71
 133 290 133 290 29 622 c 1,72,-1
 0 760 l 1,73,-1
 5 760 l 1,74,75
 175 502 175 502 292 502 c 2,76,-1
 325 502 l 6,77,78
 363 579 l 5,79,-1
 359 579 l 1,80,81
 244 662 244 662 244 760 c 2,82,-1
 244 803 l 1,83,-1
 253 813 l 1,84,85
 253 768 253 768 344 712 c 1,86,87
 389 698 389 698 421 698 c 1,88,89
 469 825 469 825 469 861 c 1,90,91
 411 861 411 861 335 1038 c 1,92,-1
 296 1181 l 1,93,-1
 301 1181 l 1,94,95
 412 1023 412 1023 497 1023 c 2,96,-1
 536 1023 l 1,97,98
 555 1042 555 1042 674 1497 c 1,99,100
 586 1497 586 1497 459 1645 c 1,101,102
 397 1750 397 1750 368 1831 c 1,103,-1
 373 1836 l 1,104,-1
 378 1836 l 1,0,1
875 1434 m 1,105,-1
 717 1009 l 1,106,-1
 732 1009 l 1,107,-1
 813 1004 l 1,108,109
 852 1059 852 1059 870 1210 c 1,110,-1
 880 1210 l 2,111,112
 888 1210 888 1210 904 1085 c 1,113,114
 932 1009 932 1009 951 1009 c 2,115,-1
 1038 1014 l 1,116,-1
 1038 1018 l 1,117,-1
 885 1434 l 1,118,-1
 875 1434 l 1,105,-1
EndSplineSet
Validated: 1
EndChar

StartChar: B
Encoding: 66 66 37
Width: 1536
Flags: W
LayerCount: 2
Fore
SplineSet
86 1844 m 1,0,1
 327 1617 327 1617 402 1609 c 0,2,3
 428 1609 428 1609 466 1519 c 1,4,-1
 471 1519 l 1,5,-1
 471 1527 l 1,6,-1
 483 1844 l 1,7,-1
 488 1844 l 1,8,9
 605 1682 605 1682 727 1647 c 1,10,-1
 813 1639 l 1,11,12
 936 1639 936 1639 1104 1750 c 1,13,-1
 1112 1750 l 1,14,-1
 1112 1746 l 2,15,16
 1112 1475 1112 1475 1262 1395 c 1,17,18
 1308 1378 1308 1378 1399 1365 c 1,19,20
 1364 1215 1364 1215 1155 1023 c 1,21,-1
 1138 1010 l 1,22,-1
 1211 1010 l 2,23,24
 1357 1010 1357 1010 1519 1147 c 1,25,-1
 1523 1147 l 1,26,-1
 1523 1104 l 2,27,28
 1523 528 1523 528 860 0 c 1,29,30
 790 136 790 136 616 210 c 1,31,32
 563 227 563 227 526 227 c 2,33,-1
 479 227 l 1,34,35
 385 214 385 214 385 137 c 0,36,37
 385 98 385 98 436 0 c 1,38,-1
 432 0 l 1,39,40
 172 138 172 138 51 462 c 1,41,42
 0 641 0 641 0 749 c 1,43,-1
 9 749 l 1,44,45
 122 475 122 475 231 475 c 0,46,47
 302 475 302 475 312 586 c 1,48,49
 364 747 364 747 364 873 c 1,50,-1
 338 873 l 2,51,52
 234 873 234 873 90 1112 c 1,53,54
 182 1018 182 1018 299 1018 c 1,55,-1
 359 1027 l 1,56,-1
 359 1100 l 2,57,58
 359 1359 359 1359 86 1840 c 1,59,-1
 86 1844 l 1,0,1
774 1472 m 0,60,61
 710 1472 710 1472 612 1515 c 1,62,-1
 535 1356 l 1,63,64
 560 1220 560 1220 560 1095 c 2,65,-1
 560 1027 l 1,66,-1
 946 1040 l 1,67,68
 1122 1193 1122 1193 1134 1275 c 1,69,70
 1034 1349 1034 1349 975 1519 c 1,71,-1
 971 1519 l 1,72,73
 870 1472 870 1472 774 1472 c 0,60,61
565 856 m 1,74,-1
 565 830 l 2,75,76
 565 614 565 614 471 432 c 1,77,-1
 501 432 l 2,78,79
 747 432 747 432 903 317 c 1,80,81
 1048 439 1048 439 1100 560 c 1,82,83
 1122 580 1122 580 1249 856 c 1,84,-1
 1245 856 l 1,85,86
 1170 839 1170 839 1091 839 c 2,87,-1
 565 856 l 1,74,-1
EndSplineSet
Validated: 1
EndChar

StartChar: C
Encoding: 67 67 38
Width: 1551
Flags: W
LayerCount: 2
Fore
SplineSet
787 1844 m 1,0,1
 932 1623 932 1623 1094 1623 c 2,2,-1
 1110 1623 l 2,3,4
 1269 1623 1269 1623 1455 1807 c 1,5,-1
 1459 1807 l 1,6,7
 1225 1524 1225 1524 1225 1229 c 0,8,9
 1225 1127 1225 1127 1266 996 c 1,10,-1
 1262 992 l 1,11,-1
 1258 992 l 1,12,13
 1232 1020 1232 1020 1151 1233 c 1,14,15
 1033 1469 1033 1469 824 1565 c 1,16,-1
 770 1586 l 1,17,18
 526 1410 526 1410 397 1201 c 1,19,-1
 344 1110 l 1,20,21
 353 1018 353 1018 500 742 c 1,22,23
 643 512 643 512 656 512 c 0,24,25
 709 500 709 500 795 500 c 2,26,-1
 820 500 l 2,27,28
 1140 500 1140 500 1258 770 c 0,29,30
 1291 847 1291 847 1291 873 c 1,31,-1
 1299 873 l 1,32,-1
 1238 615 l 1,33,34
 1410 615 1410 615 1541 1000 c 1,35,-1
 1549 1000 l 1,36,37
 1489 663 1489 663 1422 504 c 1,38,39
 1334 276 1334 276 1172 115 c 1,40,41
 1051 20 1051 20 971 0 c 1,42,-1
 971 4 l 1,43,44
 1098 129 1098 129 1098 213 c 1,45,46
 1075 332 1075 332 930 332 c 2,47,-1
 869 332 l 2,48,49
 746 332 746 332 668 238 c 1,50,51
 649 202 649 202 647 172 c 1,52,53
 652 129 652 129 660 115 c 1,54,-1
 656 115 l 1,55,56
 505 298 505 298 357 533 c 0,57,58
 44 1028 44 1028 0 1385 c 1,59,-1
 4 1389 l 1,60,-1
 8 1389 l 1,61,62
 119 1296 119 1296 205 1283 c 1,63,64
 481 1708 481 1708 787 1844 c 1,0,1
EndSplineSet
Validated: 1
EndChar

StartChar: D
Encoding: 68 68 39
Width: 1629
Flags: W
LayerCount: 2
Fore
SplineSet
149 1844 m 1,0,-1
 154 1844 l 1,1,2
 329 1608 329 1608 461 1575 c 1,3,4
 619 1612 619 1612 875 1835 c 1,5,-1
 879 1835 l 1,6,7
 1164 1575 1164 1575 1225 1473 c 1,8,-1
 1357 1293 l 1,9,-1
 1400 1285 l 1,10,11
 1505 1285 1505 1285 1622 1421 c 1,12,-1
 1626 1421 l 1,13,14
 1588 1181 1588 1181 1528 977 c 0,15,16
 1388 526 1388 526 1054 154 c 1,17,18
 921 21 921 21 888 0 c 1,19,-1
 879 0 l 1,20,21
 879 112 879 112 679 209 c 1,22,23
 604 231 604 231 555 231 c 0,24,25
 461 231 461 231 461 162 c 2,26,-1
 461 149 l 2,27,28
 461 97 461 97 508 21 c 1,29,-1
 504 17 l 1,30,31
 426 25 426 25 286 115 c 1,32,33
 136 254 136 254 90 410 c 1,34,35
 4 646 4 646 4 798 c 1,36,-1
 0 815 l 1,37,-1
 9 815 l 1,38,39
 131 487 131 487 265 487 c 1,40,41
 322 492 322 492 384 551 c 1,42,-1
 393 888 l 1,43,44
 334 888 334 888 252 956 c 1,45,46
 191 1020 191 1020 162 1084 c 1,47,-1
 166 1088 l 1,48,-1
 171 1088 l 1,49,50
 275 1003 275 1003 371 1003 c 1,51,-1
 376 1007 l 1,52,-1
 376 1016 l 2,53,54
 376 1284 376 1284 149 1844 c 1,0,-1
521 1409 m 1,55,56
 551 1269 551 1269 551 1106 c 2,57,-1
 551 1054 l 1,58,-1
 546 1003 l 1,59,-1
 551 999 l 1,60,-1
 555 999 l 1,61,-1
 875 990 l 1,62,-1
 875 982 l 1,63,-1
 563 879 l 1,64,-1
 559 807 l 1,65,-1
 559 802 l 2,66,67
 559 625 559 625 627 427 c 1,68,-1
 670 427 l 2,69,70
 749 427 749 427 896 320 c 1,71,-1
 901 320 l 1,72,73
 1081 474 1081 474 1153 602 c 1,74,75
 1285 866 1285 866 1285 1076 c 1,76,-1
 1289 1106 l 1,77,78
 1174 1219 1174 1219 939 1503 c 1,79,-1
 854 1575 l 1,80,-1
 845 1575 l 1,81,82
 653 1440 653 1440 521 1409 c 1,55,56
EndSplineSet
Validated: 1
EndChar

StartChar: E
Encoding: 69 69 40
Width: 1559
Flags: W
LayerCount: 2
Fore
SplineSet
1496 1859 m 1,0,-1
 1500 1859 l 1,1,-1
 1500 1855 l 1,2,3
 1272 1603 1272 1603 1272 1321 c 2,4,-1
 1272 1288 l 2,5,6
 1272 1162 1272 1162 1329 982 c 1,7,-1
 1174 1243 l 1,8,9
 1067 1404 1067 1404 913 1574 c 1,10,11
 676 1445 676 1445 497 1056 c 1,12,-1
 506 1056 l 1,13,14
 608 1080 608 1080 693 1080 c 2,15,-1
 766 1080 l 2,16,17
 866 1080 866 1080 1052 1040 c 1,18,-1
 1052 1035 l 2,19,20
 1052 1026 1052 1026 877 999 c 1,21,22
 595 937 595 937 485 881 c 1,23,24
 634 559 634 559 648 559 c 1,25,26
 751 526 751 526 864 526 c 0,27,28
 1096 526 1096 526 1264 840 c 1,29,-1
 1305 909 l 1,30,-1
 1313 909 l 1,31,-1
 1313 905 l 1,32,-1
 1199 571 l 1,33,-1
 1207 571 l 2,34,35
 1438 571 1438 571 1549 1080 c 1,36,-1
 1557 1080 l 1,37,-1
 1557 1076 l 2,38,39
 1557 546 1557 546 1256 204 c 1,40,41
 1089 46 1089 46 966 0 c 1,42,-1
 966 4 l 1,43,44
 1113 134 1113 134 1113 228 c 0,45,46
 1113 330 1113 330 934 347 c 1,47,-1
 921 347 l 2,48,49
 726 347 726 347 652 192 c 1,50,-1
 648 151 l 1,51,-1
 648 118 l 1,52,-1
 640 110 l 1,53,54
 350 377 350 377 216 824 c 1,55,56
 102 788 102 788 4 738 c 1,57,-1
 0 742 l 1,58,-1
 0 746 l 1,59,60
 54 875 54 875 183 950 c 1,61,-1
 183 954 l 1,62,63
 88 1215 88 1215 49 1427 c 1,64,-1
 53 1431 l 1,65,-1
 57 1431 l 1,66,67
 122 1303 122 1303 265 1243 c 1,68,-1
 285 1239 l 1,69,70
 353 1388 353 1388 591 1639 c 1,71,72
 785 1805 785 1805 897 1847 c 1,73,74
 1051 1648 1051 1648 1162 1590 c 1,75,-1
 1178 1586 l 1,76,-1
 1496 1859 l 1,0,-1
EndSplineSet
Validated: 1
EndChar

StartChar: F
Encoding: 70 70 41
Width: 1458
Flags: W
LayerCount: 2
Fore
SplineSet
849 1859 m 1,0,1
 989 1627 989 1627 1120 1500 c 1,2,3
 1214 1648 1214 1648 1453 1825 c 1,4,-1
 1458 1821 l 1,5,-1
 1458 1817 l 1,6,7
 1259 1542 1259 1542 1259 1225 c 0,8,9
 1259 1053 1259 1053 1327 832 c 1,10,-1
 1322 832 l 1,11,12
 1026 1221 1026 1221 824 1572 c 1,13,14
 569 1437 569 1437 368 1018 c 1,15,-1
 414 921 l 1,16,17
 583 1010 583 1010 790 1010 c 0,18,19
 918 1010 918 1010 1082 972 c 1,20,-1
 1082 963 l 1,21,22
 592 864 592 864 490 773 c 1,23,-1
 486 769 l 1,24,-1
 486 765 l 1,25,-1
 672 515 l 1,26,27
 698 558 698 558 879 566 c 1,28,-1
 879 562 l 1,29,30
 761 499 761 499 761 444 c 2,31,-1
 761 427 l 1,32,-1
 769 397 l 1,33,34
 917 465 917 465 1158 465 c 2,35,-1
 1166 465 l 1,36,-1
 1166 456 l 1,37,38
 731 265 731 265 731 76 c 1,39,-1
 748 4 l 1,40,-1
 744 0 l 1,41,-1
 739 0 l 1,42,43
 407 359 407 359 304 558 c 1,44,-1
 232 676 l 1,45,-1
 0 596 l 1,46,-1
 0 600 l 1,47,48
 45 707 45 707 177 803 c 1,49,50
 8 1087 8 1087 8 1382 c 1,51,-1
 17 1382 l 1,52,53
 95 1228 95 1228 207 1183 c 1,54,-1
 207 1187 l 1,55,56
 402 1632 402 1632 849 1859 c 1,0,1
EndSplineSet
Validated: 1
EndChar

StartChar: G
Encoding: 71 71 42
Width: 1551
Flags: W
LayerCount: 2
Fore
SplineSet
840 1852 m 1,0,1
 991 1626 991 1626 1108 1584 c 1,2,3
 1390 1826 1390 1826 1416 1840 c 1,4,-1
 1416 1836 l 1,5,6
 1152 1507 1152 1507 1152 1012 c 2,7,-1
 1152 1004 l 1,8,-1
 1156 956 l 1,9,-1
 1148 956 l 1,10,-1
 1144 976 l 1,11,-1
 1144 1012 l 2,12,13
 1144 1235 1144 1235 944 1464 c 1,14,15
 841 1568 841 1568 824 1568 c 1,16,17
 566 1433 566 1433 372 1036 c 1,18,19
 402 905 402 905 584 612 c 1,20,-1
 644 540 l 1,21,22
 946 560 946 560 1032 572 c 1,23,24
 1272 868 1272 868 1272 1300 c 1,25,-1
 1280 1300 l 1,26,-1
 1548 736 l 1,27,-1
 1540 736 l 1,28,29
 1466 788 1466 788 1420 788 c 0,30,31
 1256 788 1256 788 1256 300 c 1,32,-1
 1260 88 l 1,33,34
 1192 116 1192 116 1152 116 c 2,35,-1
 1148 116 l 2,36,37
 1088 116 1088 116 896 28 c 0,38,39
 829 0 829 0 804 0 c 1,40,-1
 804 4 l 1,41,42
 1032 193 1032 193 1032 416 c 2,43,-1
 1032 428 l 1,44,45
 692 354 692 354 692 236 c 2,46,-1
 692 212 l 2,47,48
 692 189 692 189 716 144 c 1,49,-1
 712 140 l 1,50,51
 604 165 604 165 504 292 c 1,52,53
 344 510 344 510 228 780 c 0,54,55
 106 1054 106 1054 0 1384 c 1,56,57
 116 1268 116 1268 208 1268 c 0,58,59
 233 1268 233 1268 248 1320 c 1,60,61
 300 1416 300 1416 440 1556 c 1,62,63
 622 1729 622 1729 832 1852 c 1,64,-1
 840 1852 l 1,0,1
EndSplineSet
Validated: 1
EndChar

StartChar: H
Encoding: 72 72 43
Width: 1816
Flags: W
LayerCount: 2
Fore
SplineSet
14 1841 m 1,0,1
 480 1841 480 1841 711 1566 c 1,2,-1
 711 1557 l 1,3,-1
 702 1557 l 2,4,5
 572 1557 572 1557 572 1202 c 2,6,-1
 572 1179 l 2,7,8
 572 1062 572 1062 585 1062 c 1,9,10
 728 1013 728 1013 828 1013 c 1,11,12
 900 1125 900 1125 900 1296 c 1,13,-1
 909 1296 l 1,14,15
 943 1022 943 1022 977 1022 c 1,16,-1
 977 1013 l 1,17,-1
 981 1013 l 2,18,19
 1064 1013 1064 1013 1238 1071 c 1,20,-1
 1238 1260 l 2,21,22
 1238 1562 1238 1562 1103 1562 c 1,23,-1
 1103 1571 l 1,24,25
 1329 1841 1329 1841 1796 1841 c 1,26,-1
 1796 1836 l 2,27,28
 1795 1828 1795 1828 1706 1778 c 1,29,30
 1454 1609 1454 1609 1454 1179 c 0,31,32
 1457 1148 1457 1148 1463 1148 c 0,33,34
 1595 1197 1595 1197 1674 1341 c 1,35,-1
 1683 1359 l 1,36,-1
 1692 1359 l 1,37,38
 1626 1104 1626 1104 1499 1013 c 1,39,-1
 1472 986 l 1,40,-1
 1472 689 l 1,41,-1
 1494 689 l 2,42,43
 1557 689 1557 689 1643 806 c 1,44,-1
 1652 806 l 1,45,46
 1652 761 1652 761 1539 590 c 1,47,-1
 1481 536 l 1,48,-1
 1481 468 l 1,49,-1
 1512 468 l 2,50,51
 1628 468 1628 468 1809 671 c 1,52,-1
 1809 662 l 1,53,54
 1483 0 1483 0 1080 0 c 2,55,-1
 1062 0 l 1,56,-1
 1062 5 l 1,57,58
 1247 143 1247 143 1247 612 c 1,59,-1
 1242 873 l 1,60,-1
 1238 873 l 1,61,62
 1118 828 1118 828 986 806 c 1,63,64
 914 680 914 680 914 459 c 1,65,-1
 905 459 l 1,66,67
 881 748 881 748 833 797 c 1,68,-1
 828 810 l 1,69,-1
 806 810 l 2,70,71
 703 810 703 810 563 873 c 1,72,-1
 563 869 l 1,73,-1
 558 617 l 1,74,75
 558 158 558 158 747 5 c 1,76,-1
 747 0 l 1,77,-1
 720 0 l 2,78,79
 350 0 350 0 32 599 c 0,80,81
 0 657 0 657 0 671 c 1,82,83
 168 464 168 464 315 464 c 2,84,-1
 320 464 l 1,85,-1
 333 468 l 1,86,-1
 333 531 l 1,87,88
 211 642 211 642 180 752 c 1,89,-1
 162 801 l 1,90,-1
 171 801 l 1,91,92
 254 684 254 684 329 684 c 2,93,-1
 338 684 l 1,94,-1
 338 986 l 1,95,96
 186 1106 186 1106 122 1341 c 1,97,-1
 122 1359 l 1,98,99
 233 1181 233 1181 347 1148 c 1,100,-1
 356 1148 l 1,101,-1
 356 1202 l 2,102,103
 356 1672 356 1672 14 1827 c 1,104,-1
 14 1841 l 1,0,1
EndSplineSet
Validated: 1
EndChar

StartChar: I
Encoding: 73 73 44
Width: 1551
Flags: W
LayerCount: 2
Fore
SplineSet
436 1852 m 0,0,1
 443 1852 443 1852 463 1770 c 1,2,3
 560 1621 560 1621 776 1621 c 0,4,5
 1054 1621 1054 1621 1108 1811 c 1,6,-1
 1112 1843 l 1,7,-1
 1121 1843 l 1,8,9
 1457 1660 1457 1660 1457 1312 c 0,10,11
 1457 1188 1457 1188 1398 1008 c 1,12,-1
 1389 1008 l 1,13,14
 1389 1107 1389 1107 1316 1280 c 1,15,16
 1222 1453 1222 1453 1035 1453 c 2,17,-1
 1003 1453 l 2,18,19
 926 1453 926 1453 926 1439 c 2,20,-1
 921 1375 l 1,21,-1
 926 1375 l 2,22,23
 1049 1375 1049 1375 1094 1266 c 1,24,-1
 1094 1262 l 1,25,-1
 1089 1262 l 1,26,27
 1044 1280 1044 1280 999 1280 c 2,28,-1
 994 1280 l 1,29,30
 927 1276 927 1276 921 1257 c 1,31,-1
 921 626 l 1,32,33
 940 604 940 604 976 604 c 2,34,-1
 1003 604 l 2,35,36
 1039 604 1039 604 1098 645 c 1,37,-1
 1103 640 l 1,38,39
 1068 504 1068 504 976 504 c 1,40,-1
 953 499 l 1,41,42
 944 482 944 482 944 449 c 2,43,-1
 944 418 l 1,44,-1
 940 395 l 1,45,-1
 944 395 l 2,46,47
 1220 395 1220 395 1443 658 c 1,48,49
 1515 753 1515 753 1543 817 c 1,50,-1
 1552 817 l 1,51,-1
 1552 813 l 2,52,53
 1552 661 1552 661 1425 418 c 1,54,55
 1277 180 1277 180 1012 9 c 1,56,-1
 1003 9 l 1,57,58
 986 182 986 182 844 182 c 2,59,-1
 772 182 l 2,60,61
 629 182 629 182 586 127 c 1,62,63
 544 55 544 55 540 0 c 1,64,65
 178 223 178 223 45 608 c 0,66,67
 18 686 18 686 0 826 c 1,68,-1
 5 826 l 1,69,70
 89 673 89 673 213 563 c 0,71,72
 400 404 400 404 604 404 c 2,73,-1
 613 404 l 1,74,-1
 613 409 l 2,75,76
 610 504 610 504 604 504 c 0,77,78
 517 504 517 504 468 599 c 1,79,-1
 449 649 l 1,80,-1
 454 654 l 1,81,82
 527 608 527 608 567 608 c 1,83,84
 601 613 601 613 635 631 c 1,85,-1
 635 1271 l 1,86,87
 590 1289 590 1289 558 1289 c 0,88,89
 522 1289 522 1289 463 1271 c 1,90,-1
 458 1276 l 1,91,92
 507 1384 507 1384 635 1384 c 1,93,-1
 631 1389 l 1,94,-1
 631 1421 l 2,95,96
 631 1457 631 1457 599 1457 c 2,97,-1
 540 1462 l 1,98,-1
 517 1462 l 2,99,100
 234 1462 234 1462 168 1053 c 1,101,-1
 163 1012 l 1,102,-1
 154 1012 l 1,103,104
 100 1193 100 1193 100 1335 c 0,105,106
 100 1669 100 1669 436 1852 c 0,0,1
EndSplineSet
Validated: 1
EndChar

StartChar: J
Encoding: 74 74 45
Width: 1637
Flags: W
LayerCount: 2
Fore
SplineSet
752 1852 m 1,0,-1
 765 1852 l 1,1,-1
 746 1757 l 1,2,3
 746 1656 746 1656 860 1656 c 1,4,-1
 1119 1675 l 1,5,6
 1355 1675 1355 1675 1568 1359 c 1,7,-1
 1637 1207 l 1,8,-1
 1631 1207 l 1,9,10
 1514 1334 1514 1334 1416 1334 c 1,11,12
 1353 1323 1353 1323 1353 1258 c 1,13,14
 1308 1165 1308 1165 1308 1037 c 2,15,-1
 1308 992 l 2,16,17
 1308 807 1308 807 1422 506 c 1,18,-1
 1422 499 l 2,19,20
 1422 326 1422 326 1119 38 c 1,21,-1
 1068 13 l 1,22,-1
 1062 19 l 1,23,24
 1081 60 1081 60 1081 120 c 2,25,-1
 1081 158 l 2,26,27
 1081 260 1081 260 961 272 c 1,28,29
 831 272 831 272 777 88 c 1,30,-1
 771 32 l 1,31,-1
 771 13 l 2,32,33
 771 0 771 0 752 0 c 1,34,35
 547 71 547 71 303 310 c 1,36,37
 94 545 94 545 19 898 c 1,38,-1
 0 1030 l 1,39,-1
 13 1030 l 1,40,41
 13 977 13 977 221 664 c 1,42,-1
 196 803 l 1,43,-1
 202 879 l 1,44,-1
 209 879 l 1,45,46
 304 698 304 698 405 582 c 1,47,48
 563 430 563 430 752 430 c 0,49,50
 988 430 988 430 1081 600 c 1,51,-1
 1081 613 l 1,52,53
 961 860 961 860 961 1043 c 2,54,-1
 961 1056 l 2,55,56
 961 1207 961 1207 1043 1410 c 1,57,58
 898 1473 898 1473 790 1473 c 0,59,60
 516 1473 516 1473 278 1144 c 1,61,-1
 265 1144 l 1,62,63
 294 1327 294 1327 474 1580 c 1,64,65
 640 1767 640 1767 752 1852 c 1,0,-1
EndSplineSet
Validated: 1
EndChar

StartChar: K
Encoding: 75 75 46
Width: 1388
Flags: W
LayerCount: 2
Fore
SplineSet
1048 1852 m 1,0,-1
 1056 1852 l 1,1,-1
 1192 1465 l 1,2,3
 1217 1355 1217 1355 1217 1290 c 0,4,5
 1217 1156 1217 1156 1112 1051 c 1,6,-1
 1107 1051 l 1,7,-1
 1107 1065 l 1,8,-1
 1112 1124 l 1,9,10
 1112 1222 1112 1222 1060 1222 c 0,11,12
 989 1222 989 1222 834 1055 c 1,13,14
 1009 766 1009 766 1030 745 c 1,15,-1
 1034 745 l 2,16,17
 1087 745 1087 745 1184 843 c 1,18,-1
 1188 843 l 1,19,-1
 1188 839 l 1,20,21
 1133 730 1133 730 1133 643 c 2,22,-1
 1133 630 l 2,23,24
 1133 563 1133 563 1175 540 c 1,25,-1
 1201 540 l 2,26,27
 1284 540 1284 540 1328 783 c 1,28,-1
 1337 924 l 1,29,-1
 1332 1035 l 1,30,-1
 1341 1035 l 1,31,32
 1388 837 1388 837 1388 711 c 2,33,-1
 1388 651 l 2,34,35
 1388 284 1388 284 1056 30 c 1,36,-1
 1052 30 l 1,37,-1
 1052 34 l 1,38,-1
 1060 94 l 1,39,-1
 1060 141 l 2,40,41
 1060 382 1060 382 605 928 c 1,42,43
 605 921 605 921 498 864 c 1,44,-1
 502 779 l 1,45,-1
 502 754 l 2,46,47
 502 104 502 104 281 -29 c 1,48,-1
 268 -29 l 1,49,50
 332 23 332 23 332 68 c 2,51,-1
 332 85 l 2,52,53
 332 130 332 130 187 230 c 1,54,55
 29 395 29 395 29 592 c 1,56,-1
 43 707 l 1,57,-1
 47 707 l 2,58,59
 53 707 53 707 93 579 c 1,60,61
 145 481 145 481 187 481 c 2,62,-1
 192 481 l 2,63,64
 278 481 278 481 298 779 c 1,65,-1
 298 792 l 2,66,67
 298 1064 298 1064 187 1150 c 1,68,-1
 166 1154 l 1,69,70
 107 1154 107 1154 29 1018 c 1,71,-1
 25 1018 l 1,72,73
 0 1097 0 1097 0 1145 c 0,74,75
 0 1307 0 1307 251 1576 c 1,76,77
 371 1737 371 1737 371 1835 c 2,78,-1
 371 1844 l 1,79,-1
 379 1844 l 1,80,81
 379 1770 379 1770 472 1213 c 1,82,-1
 477 1115 l 1,83,84
 921 1380 921 1380 1017 1703 c 1,85,86
 1048 1823 1048 1823 1048 1852 c 1,0,-1
EndSplineSet
Validated: 1
EndChar

StartChar: L
Encoding: 76 76 47
Width: 1411
Flags: W
LayerCount: 2
Fore
SplineSet
1011 1852 m 1,0,-1
 1011 1848 l 1,1,2
 920 1784 920 1784 841 1712 c 1,3,4
 675 1529 675 1529 638 1374 c 1,5,6
 588 1241 588 1241 562 808 c 1,7,8
 545 704 545 704 524 664 c 1,9,10
 682 613 682 613 799 613 c 0,11,12
 1070 613 1070 613 1192 858 c 1,13,-1
 1197 858 l 1,14,-1
 1197 854 l 1,15,-1
 1133 609 l 1,16,-1
 1159 609 l 2,17,18
 1263 609 1263 609 1404 977 c 1,19,-1
 1412 977 l 1,20,21
 1412 739 1412 739 1260 440 c 1,22,23
 1071 139 1071 139 744 0 c 1,24,-1
 744 4 l 1,25,26
 913 189 913 189 913 292 c 0,27,28
 913 404 913 404 748 419 c 1,29,-1
 715 423 l 1,30,31
 436 391 436 391 436 271 c 2,32,-1
 436 258 l 2,33,34
 436 202 436 202 537 123 c 1,35,-1
 537 118 l 1,36,37
 131 221 131 221 131 495 c 0,38,39
 131 650 131 650 313 994 c 1,40,41
 326 1041 326 1041 326 1091 c 2,42,-1
 326 1163 l 2,43,44
 326 1317 326 1317 228 1336 c 1,45,-1
 224 1336 l 2,46,47
 129 1336 129 1336 4 1184 c 1,48,-1
 0 1184 l 1,49,-1
 0 1188 l 1,50,51
 13 1346 13 1346 127 1480 c 1,52,53
 218 1580 218 1580 402 1632 c 1,54,55
 475 1640 475 1640 613 1729 c 1,56,57
 725 1810 725 1810 922 1844 c 1,58,-1
 1011 1852 l 1,0,-1
EndSplineSet
Validated: 1
EndChar

StartChar: M
Encoding: 77 77 48
Width: 1684
Flags: W
LayerCount: 2
Fore
SplineSet
531 1852 m 1,0,-1
 535 1847 l 1,1,-1
 531 1786 l 1,2,-1
 531 1729 l 2,3,4
 531 1359 531 1359 838 1046 c 1,5,6
 1153 1361 1153 1361 1153 1749 c 1,7,-1
 1149 1835 l 1,8,-1
 1153 1839 l 1,9,10
 1407 1697 1407 1697 1512 1451 c 1,11,12
 1561 1314 1561 1314 1561 1230 c 1,13,-1
 1553 1230 l 1,14,15
 1493 1398 1493 1398 1377 1398 c 2,16,-1
 1365 1398 l 1,17,-1
 1480 883 l 1,18,-1
 1496 883 l 2,19,20
 1546 883 1546 883 1627 973 c 1,21,-1
 1631 973 l 1,22,23
 1631 859 1631 859 1529 748 c 1,24,25
 1510 740 1510 740 1508 732 c 2,26,-1
 1508 601 l 1,27,28
 1588 628 1588 628 1676 740 c 1,29,-1
 1684 740 l 1,30,31
 1637 578 1637 578 1541 425 c 0,32,33
 1348 126 1348 126 956 0 c 1,34,-1
 956 4 l 1,35,36
 1155 146 1155 146 1247 482 c 1,37,38
 1279 624 1279 624 1279 736 c 0,39,40
 1279 1056 1279 1056 1132 1157 c 1,41,-1
 1128 1161 l 1,42,-1
 1124 1161 l 1,43,44
 1124 1140 1124 1140 965 940 c 1,45,46
 920 848 920 848 920 805 c 2,47,-1
 920 773 l 1,48,49
 1018 764 1018 764 1018 756 c 2,50,-1
 1018 752 l 1,51,52
 896 680 896 680 842 535 c 1,53,-1
 838 535 l 2,54,55
 832 536 832 536 793 629 c 1,56,57
 759 690 759 690 666 768 c 1,58,-1
 666 773 l 1,59,60
 764 782 764 782 764 789 c 0,61,62
 764 887 764 887 613 1079 c 0,63,64
 583 1117 583 1117 556 1173 c 1,65,66
 405 1075 405 1075 405 756 c 2,67,-1
 405 744 l 2,68,69
 405 289 405 289 728 12 c 1,70,-1
 728 8 l 1,71,72
 591 54 591 54 474 119 c 0,73,74
 369 175 369 175 213 339 c 1,75,76
 52 545 52 545 0 752 c 1,77,78
 108 631 108 631 176 613 c 1,79,-1
 176 732 l 1,80,81
 61 828 61 828 61 969 c 1,82,83
 140 879 140 879 200 879 c 1,84,-1
 315 1410 l 1,85,-1
 311 1410 l 2,86,87
 192 1410 192 1410 127 1243 c 1,88,-1
 119 1243 l 1,89,90
 119 1354 119 1354 204 1537 c 1,91,92
 317 1732 317 1732 531 1852 c 1,0,-1
EndSplineSet
Validated: 1
EndChar

StartChar: N
Encoding: 78 78 49
Width: 1664
Flags: W
LayerCount: 2
Fore
SplineSet
644 1852 m 1,0,-1
 644 1847 l 1,1,2
 501 1664 501 1664 491 1570 c 1,3,-1
 491 1536 l 2,4,5
 491 1494 491 1494 589 1399 c 1,6,-1
 828 1135 l 1,7,-1
 866 1318 l 1,8,-1
 875 1318 l 1,9,-1
 875 1314 l 1,10,11
 920 1011 920 1011 969 1011 c 1,12,-1
 1173 832 l 1,13,14
 1207 1029 1207 1029 1207 1216 c 0,15,16
 1207 1630 1207 1630 1015 1835 c 1,17,-1
 1020 1839 l 1,18,19
 1289 1762 1289 1762 1429 1579 c 0,20,21
 1578 1381 1578 1381 1617 1220 c 1,22,-1
 1609 1220 l 1,23,24
 1524 1289 1524 1289 1463 1289 c 0,25,26
 1413 1289 1413 1289 1395 1216 c 1,27,-1
 1399 1199 l 1,28,-1
 1395 781 l 1,29,-1
 1399 781 l 1,30,-1
 1425 777 l 1,31,-1
 1446 777 l 1,32,33
 1499 784 1499 784 1553 823 c 1,34,-1
 1562 823 l 1,35,36
 1538 724 1538 724 1446 653 c 2,37,-1
 1395 614 l 1,38,-1
 1395 469 l 1,39,-1
 1417 465 l 1,40,-1
 1438 465 l 2,41,42
 1535 465 1535 465 1655 695 c 1,43,-1
 1664 695 l 1,44,45
 1653 596 1653 596 1515 316 c 1,46,47
 1318 0 1318 0 1067 0 c 2,48,-1
 947 0 l 1,49,-1
 947 9 l 1,50,51
 1149 9 1149 9 1203 235 c 1,52,-1
 1207 273 l 1,53,54
 1207 395 1207 395 1071 529 c 1,55,-1
 913 708 l 1,56,57
 875 560 875 560 875 495 c 1,58,-1
 866 495 l 1,59,60
 831 819 831 819 781 819 c 1,61,-1
 491 1109 l 1,62,-1
 491 358 l 2,63,64
 491 107 491 107 670 34 c 1,65,66
 713 26 713 26 713 17 c 2,67,-1
 713 13 l 1,68,-1
 631 9 l 1,69,70
 190 9 190 9 0 704 c 1,71,-1
 0 708 l 1,72,73
 130 482 130 482 247 482 c 1,74,-1
 277 486 l 1,75,-1
 277 623 l 1,76,77
 136 713 136 713 98 836 c 1,78,-1
 102 841 l 1,79,-1
 107 841 l 1,80,81
 167 789 167 789 226 789 c 2,82,-1
 235 789 l 2,83,84
 269 789 269 789 269 819 c 2,85,-1
 277 1024 l 1,86,87
 277 1301 277 1301 213 1301 c 2,88,-1
 188 1301 l 2,89,90
 143 1301 143 1301 47 1229 c 1,91,-1
 43 1229 l 1,92,93
 183 1638 183 1638 457 1779 c 0,94,95
 591 1846 591 1846 644 1852 c 1,0,-1
EndSplineSet
Validated: 1
EndChar

StartChar: O
Encoding: 79 79 50
Width: 1672
Flags: W
LayerCount: 2
Fore
SplineSet
832 1844 m 1,0,1
 1180 1463 1180 1463 1443 1463 c 2,2,-1
 1463 1463 l 2,3,4
 1570 1463 1570 1463 1668 1535 c 1,5,-1
 1673 1530 l 1,6,7
 1638 1382 1638 1382 1551 1305 c 1,8,-1
 1522 1284 l 1,9,10
 1576 1161 1576 1161 1576 1041 c 0,11,12
 1574 970 1574 970 1564 970 c 2,13,-1
 1560 970 l 1,14,15
 1516 1125 1516 1125 1459 1125 c 0,16,17
 1389 1125 1389 1125 1376 845 c 1,18,-1
 1380 652 l 1,19,-1
 1380 615 l 2,20,21
 1380 548 1380 548 1422 548 c 0,22,23
 1476 552 1476 552 1547 682 c 1,24,-1
 1551 682 l 1,25,-1
 1551 669 l 2,26,27
 1551 538 1551 538 1443 364 c 1,28,29
 1564 257 1564 257 1564 151 c 2,30,-1
 1564 134 l 1,31,-1
 1560 113 l 1,32,-1
 1551 113 l 1,33,34
 1365 251 1365 251 1213 251 c 2,35,-1
 1162 251 l 2,36,37
 965 251 965 251 832 0 c 1,38,-1
 828 0 l 1,39,40
 713 259 713 259 468 259 c 0,41,42
 305 259 305 259 117 121 c 1,43,44
 108 121 108 121 105 159 c 0,45,46
 105 255 105 255 226 376 c 1,47,48
 117 557 117 557 117 677 c 1,49,-1
 121 694 l 1,50,-1
 130 694 l 1,51,52
 187 560 187 560 243 560 c 2,53,-1
 268 560 l 2,54,55
 277 560 277 560 289 594 c 1,56,-1
 293 840 l 1,57,-1
 293 853 l 1,58,59
 283 1133 283 1133 213 1133 c 2,60,-1
 209 1133 l 2,61,62
 157 1133 157 1133 109 978 c 1,63,-1
 100 978 l 1,64,-1
 96 1041 l 1,65,-1
 96 1058 l 2,66,67
 96 1168 96 1168 146 1296 c 1,68,69
 59 1348 59 1348 8 1501 c 1,70,-1
 0 1543 l 1,71,-1
 4 1543 l 1,72,73
 110 1472 110 1472 201 1472 c 2,74,-1
 255 1472 l 2,75,76
 490 1472 490 1472 832 1844 c 1,0,1
443 1317 m 1,77,78
 510 1050 510 1050 510 686 c 1,79,-1
 506 623 l 1,80,81
 618 711 618 711 715 836 c 1,82,83
 754 903 754 903 765 937 c 1,84,-1
 774 937 l 1,85,86
 774 800 774 800 636 518 c 1,87,88
 670 448 670 448 807 397 c 1,89,-1
 836 389 l 1,90,91
 1003 443 1003 443 1037 510 c 1,92,93
 915 735 915 735 895 928 c 1,94,-1
 903 928 l 1,95,96
 934 839 934 839 1062 702 c 1,97,-1
 1162 615 l 1,98,-1
 1162 736 l 2,99,100
 1162 1055 1162 1055 1229 1309 c 1,101,102
 1144 1319 1144 1319 1041 1405 c 1,103,-1
 991 1455 l 1,104,-1
 987 1455 l 1,105,106
 836 1260 836 1260 836 1029 c 1,107,-1
 828 1029 l 1,108,-1
 828 1041 l 2,109,110
 828 1276 828 1276 682 1468 c 1,111,112
 548 1330 548 1330 477 1330 c 1,113,-1
 464 1326 l 1,114,-1
 460 1321 l 1,115,-1
 443 1317 l 1,77,78
EndSplineSet
Validated: 1
EndChar

StartChar: P
Encoding: 80 80 51
Width: 1520
Flags: W
LayerCount: 2
Fore
SplineSet
811 1834 m 1,0,1
 950 1798 950 1798 1210 1639 c 1,2,3
 1414 1483 1414 1483 1414 1354 c 2,4,-1
 1414 1320 l 1,5,-1
 1405 1261 l 1,6,7
 1453 1261 1453 1261 1507 1414 c 1,8,-1
 1512 1435 l 1,9,-1
 1520 1435 l 1,10,11
 1520 1112 1520 1112 1320 726 c 1,12,13
 1246 596 1246 596 1074 416 c 1,14,-1
 964 327 l 1,15,-1
 964 331 l 1,16,17
 1104 484 1104 484 1104 624 c 0,18,19
 1104 796 1104 796 875 841 c 1,20,-1
 815 845 l 1,21,-1
 807 845 l 2,22,23
 688 845 688 845 688 824 c 1,24,25
 675 774 675 774 675 684 c 2,26,-1
 675 679 l 2,27,28
 675 468 675 468 794 310 c 1,29,-1
 790 306 l 1,30,31
 747 323 747 323 692 323 c 1,32,33
 535 297 535 297 535 170 c 2,34,-1
 535 136 l 2,35,36
 535 86 535 86 582 0 c 1,37,-1
 577 0 l 1,38,39
 437 43 437 43 242 229 c 1,40,41
 84 411 84 411 25 603 c 1,42,-1
 25 607 l 1,43,44
 201 335 201 335 340 335 c 0,45,46
 445 335 445 335 471 518 c 1,47,-1
 471 607 l 2,48,49
 471 704 471 704 429 866 c 1,50,-1
 395 866 l 2,51,52
 310 866 310 866 183 785 c 1,53,-1
 178 785 l 1,54,-1
 178 790 l 1,55,56
 221 866 221 866 403 1011 c 1,57,-1
 412 1151 l 1,58,59
 412 1371 412 1371 306 1435 c 1,60,-1
 263 1444 l 1,61,-1
 246 1444 l 2,62,63
 134 1444 134 1444 4 1274 c 1,64,-1
 0 1278 l 1,65,66
 35 1478 35 1478 195 1660 c 1,67,68
 295 1756 295 1756 369 1796 c 1,69,-1
 374 1792 l 1,70,71
 357 1749 357 1749 357 1707 c 2,72,-1
 357 1686 l 2,73,74
 357 1588 357 1588 437 1588 c 2,75,-1
 467 1588 l 2,76,77
 607 1588 607 1588 811 1830 c 1,78,-1
 811 1834 l 1,0,1
815 1630 m 1,79,80
 764 1541 764 1541 641 1499 c 2,81,-1
 628 1495 l 1,82,83
 684 1274 684 1274 684 1036 c 1,84,-1
 747 1036 l 2,85,86
 988 1036 988 1036 1159 836 c 1,87,88
 1265 1007 1265 1007 1265 1155 c 0,89,90
 1265 1445 1265 1445 815 1630 c 1,79,80
EndSplineSet
Validated: 1
EndChar

StartChar: Q
Encoding: 81 81 52
Width: 1505
Flags: W
LayerCount: 2
Fore
SplineSet
675 1852 m 1,0,1
 977 1580 977 1580 1098 1580 c 2,2,-1
 1110 1580 l 1,3,4
 1203 1595 1203 1595 1203 1710 c 0,5,6
 1203 1730 1203 1730 1211 1730 c 1,7,8
 1337 1620 1337 1620 1337 1458 c 0,9,10
 1337 1346 1337 1346 1236 1073 c 1,11,-1
 1228 1022 l 1,12,-1
 1228 1001 l 2,13,14
 1228 966 1228 966 1320 670 c 1,15,16
 1332 602 1332 602 1332 549 c 2,17,-1
 1332 536 l 2,18,19
 1332 421 1332 421 1261 348 c 1,20,-1
 1253 348 l 1,21,22
 1144 549 1144 549 1010 549 c 0,23,24
 970 549 970 549 926 520 c 1,25,26
 1068 320 1068 320 1068 197 c 2,27,-1
 1068 193 l 1,28,29
 1171 200 1171 200 1337 348 c 1,30,31
 1440 455 1440 455 1500 566 c 1,32,-1
 1508 566 l 1,33,-1
 1508 561 l 1,34,35
 1441 378 1441 378 1261 189 c 1,36,37
 1035 0 1035 0 784 0 c 2,38,-1
 679 0 l 1,39,-1
 679 8 l 1,40,41
 834 81 834 81 834 205 c 0,42,43
 834 307 834 307 750 444 c 1,44,-1
 746 444 l 1,45,46
 699 421 699 421 679 356 c 1,47,-1
 675 352 l 1,48,-1
 670 352 l 1,49,50
 493 553 493 553 293 553 c 0,51,52
 146 553 146 553 92 419 c 1,53,-1
 88 377 l 1,54,-1
 88 352 l 1,55,-1
 80 352 l 1,56,57
 8 424 8 424 8 545 c 2,58,-1
 8 549 l 2,59,60
 8 666 8 666 101 939 c 0,61,62
 109 955 109 955 109 985 c 2,63,-1
 109 1010 l 2,64,65
 109 1052 109 1052 13 1337 c 1,66,-1
 0 1462 l 1,67,68
 0 1613 0 1613 130 1722 c 1,69,70
 151 1596 151 1596 176 1596 c 1,71,72
 176 1586 176 1586 218 1575 c 1,73,-1
 243 1575 l 2,74,75
 367 1575 367 1575 675 1852 c 1,0,1
323 1311 m 1,76,77
 369 1152 369 1152 369 1006 c 0,78,79
 369 892 369 892 327 750 c 1,80,-1
 356 750 l 2,81,82
 469 750 469 750 633 662 c 1,83,-1
 436 989 l 1,84,-1
 436 993 l 1,85,-1
 440 993 l 1,86,-1
 813 712 l 1,87,88
 901 763 901 763 951 763 c 2,89,-1
 980 763 l 1,90,91
 939 891 939 891 939 1035 c 0,92,93
 939 1124 939 1124 976 1278 c 1,94,95
 860 1311 860 1311 675 1504 c 1,96,97
 497 1350 497 1350 323 1311 c 1,76,77
EndSplineSet
Validated: 1
EndChar

StartChar: R
Encoding: 82 82 53
Width: 1598
Flags: W
LayerCount: 2
Fore
SplineSet
794 1844 m 1,0,1
 918 1816 918 1816 1115 1659 c 1,2,3
 1297 1473 1297 1473 1334 1358 c 1,4,5
 1380 1358 1380 1358 1441 1494 c 1,6,-1
 1445 1494 l 2,7,8
 1457 1494 1457 1494 1457 1441 c 0,9,10
 1457 1208 1457 1208 1041 1029 c 1,11,12
 1130 971 1130 971 1235 971 c 2,13,-1
 1268 971 l 2,14,15
 1390 971 1390 971 1531 1054 c 1,16,-1
 1535 1050 l 1,17,-1
 1535 1045 l 1,18,19
 1391 846 1391 846 1391 659 c 2,20,-1
 1391 626 l 2,21,22
 1391 563 1391 563 1428 543 c 1,23,-1
 1441 543 l 2,24,25
 1504 543 1504 543 1593 683 c 1,26,-1
 1601 683 l 1,27,-1
 1601 679 l 2,28,29
 1601 482 1601 482 1404 280 c 1,30,31
 1234 147 1234 147 1111 111 c 1,32,33
 1014 62 1014 62 753 8 c 1,34,-1
 687 0 l 1,35,-1
 687 8 l 1,36,37
 1185 216 1185 216 1185 568 c 1,38,39
 1162 786 1162 786 1120 811 c 1,40,41
 962 811 962 811 663 868 c 1,42,-1
 663 864 l 2,43,44
 663 731 663 731 753 473 c 1,45,46
 597 404 597 404 597 305 c 0,47,48
 597 240 597 240 733 218 c 1,49,-1
 733 210 l 1,50,51
 658 193 658 193 605 193 c 0,52,53
 267 193 267 193 0 659 c 1,54,-1
 0 667 l 1,55,56
 176 449 176 449 350 449 c 2,57,-1
 379 449 l 1,58,59
 469 462 469 462 469 531 c 2,60,-1
 453 926 l 1,61,62
 407 926 407 926 193 1054 c 1,63,-1
 140 1091 l 1,64,-1
 140 1099 l 1,65,66
 281 1078 281 1078 342 1078 c 0,67,68
 393 1078 393 1078 449 1091 c 1,69,-1
 457 1243 l 1,70,-1
 457 1276 l 2,71,72
 457 1535 457 1535 292 1535 c 0,73,74
 203 1535 203 1535 37 1441 c 1,75,-1
 37 1445 l 1,76,77
 136 1685 136 1685 432 1840 c 1,78,-1
 436 1836 l 1,79,-1
 436 1832 l 1,80,81
 407 1756 407 1756 407 1712 c 0,82,83
 407 1663 407 1663 449 1663 c 2,84,-1
 465 1663 l 1,85,86
 556 1671 556 1671 794 1844 c 1,0,1
753 1667 m 1,87,-1
 605 1568 l 1,88,89
 605 1208 605 1208 654 1099 c 1,90,91
 666 1083 666 1083 675 1083 c 0,92,93
 916 1122 916 1122 1078 1214 c 1,94,-1
 1153 1268 l 1,95,96
 1128 1393 1128 1393 1066 1474 c 0,97,98
 959 1606 959 1606 753 1667 c 1,87,-1
EndSplineSet
Validated: 1
EndChar

StartChar: S
Encoding: 83 83 54
Width: 1606
Flags: W
LayerCount: 2
Fore
SplineSet
770 1852 m 1,0,-1
 783 1852 l 1,1,2
 888 1646 888 1646 1082 1646 c 2,3,-1
 1086 1646 l 2,4,5
 1279 1646 1279 1646 1566 1852 c 1,6,-1
 1570 1852 l 1,7,8
 1448 1701 1448 1701 1313 1440 c 1,9,10
 1216 1287 1216 1287 1094 1221 c 1,11,-1
 998 1191 l 1,12,-1
 993 1195 l 1,13,-1
 993 1200 l 1,14,15
 1082 1323 1082 1323 1082 1448 c 2,16,-1
 1082 1452 l 1,17,-1
 1014 1448 l 1,18,19
 773 1448 773 1448 492 1545 c 1,20,-1
 492 1541 l 1,21,-1
 488 1440 l 1,22,-1
 488 1414 l 1,23,-1
 484 1120 l 1,24,25
 669 1086 669 1086 804 1086 c 2,26,-1
 833 1086 l 2,27,28
 1254 1086 1254 1086 1444 1381 c 1,29,-1
 1452 1381 l 1,30,31
 1372 1116 1372 1116 1372 939 c 2,32,-1
 1372 901 l 2,33,34
 1372 727 1372 727 1448 686 c 1,35,-1
 1461 686 l 2,36,37
 1530 686 1530 686 1578 884 c 1,38,-1
 1583 884 l 1,39,40
 1608 851 1608 851 1608 791 c 2,41,-1
 1608 758 l 2,42,43
 1608 644 1608 644 1322 497 c 1,44,45
 1233 422 1233 422 1170 316 c 1,46,47
 939 30 939 30 779 0 c 1,48,-1
 779 4 l 1,49,50
 867 120 867 120 867 189 c 0,51,52
 867 290 867 290 720 290 c 0,53,54
 560 290 560 290 434 173 c 1,55,56
 387 110 387 110 387 72 c 1,57,-1
 379 72 l 1,58,59
 265 259 265 259 265 396 c 0,60,61
 265 625 265 625 560 796 c 1,62,-1
 564 791 l 1,63,-1
 564 787 l 1,64,65
 526 707 526 707 526 636 c 0,66,67
 526 536 526 536 581 467 c 1,68,69
 701 526 701 526 1040 526 c 1,70,-1
 1136 522 l 1,71,-1
 1170 522 l 1,72,73
 1115 685 1115 685 1115 791 c 1,74,75
 1120 864 1120 864 1141 947 c 1,76,77
 1005 913 1005 913 905 913 c 2,78,-1
 850 913 l 1,79,-1
 673 926 l 1,80,-1
 669 926 l 2,81,82
 423 926 423 926 286 686 c 1,83,-1
 274 686 l 1,84,85
 227 786 227 786 227 888 c 2,86,-1
 227 901 l 2,87,88
 227 932 227 932 248 1014 c 1,89,-1
 248 1107 l 1,90,91
 238 1263 238 1263 173 1263 c 2,92,-1
 168 1263 l 2,93,94
 111 1263 111 1263 8 1174 c 1,95,-1
 0 1174 l 1,96,-1
 0 1187 l 2,97,98
 0 1394 0 1394 152 1461 c 1,99,100
 367 1540 367 1540 585 1671 c 1,101,102
 724 1767 724 1767 770 1852 c 1,0,-1
EndSplineSet
Validated: 1
EndChar

StartChar: T
Encoding: 84 84 55
Width: 1700
Flags: W
LayerCount: 2
Fore
SplineSet
322 1842 m 1,0,1
 682 1625 682 1625 829 1625 c 1,2,-1
 842 1629 l 1,3,-1
 854 1625 l 1,4,5
 1007 1625 1007 1625 1382 1842 c 1,6,-1
 1382 1838 l 1,7,8
 1252 1679 1252 1679 1252 1600 c 2,9,-1
 1252 1587 l 2,10,11
 1252 1528 1252 1528 1352 1528 c 2,12,-1
 1357 1528 l 2,13,14
 1479 1528 1479 1528 1700 1595 c 1,15,-1
 1700 1591 l 1,16,17
 1631 1452 1631 1452 1386 1185 c 1,18,-1
 1214 1022 l 1,19,-1
 1210 1022 l 1,20,21
 1269 1153 1269 1153 1269 1248 c 1,22,23
 1249 1432 1249 1432 1122 1432 c 0,24,25
 1061 1432 1061 1432 1009 1382 c 1,26,-1
 1017 456 l 1,27,-1
 1051 448 l 1,28,-1
 1076 448 l 2,29,30
 1135 448 1135 448 1218 507 c 1,31,-1
 1223 507 l 1,32,33
 1182 404 1182 404 1093 356 c 1,34,-1
 1059 348 l 1,35,-1
 1047 348 l 1,36,-1
 1047 343 l 2,37,38
 1047 251 1047 251 1093 251 c 0,39,40
 1159 251 1159 251 1344 477 c 1,41,-1
 1348 477 l 1,42,43
 1239 145 1239 145 1022 0 c 1,44,45
 976 88 976 88 863 88 c 0,46,47
 713 88 713 88 691 8 c 1,48,-1
 678 0 l 1,49,50
 465 141 465 141 356 473 c 1,51,-1
 360 473 l 1,52,53
 541 251 541 251 611 251 c 0,54,55
 653 251 653 251 653 310 c 2,56,-1
 653 343 l 1,57,58
 560 343 560 343 477 507 c 1,59,-1
 482 507 l 1,60,61
 574 444 574 444 636 444 c 0,62,63
 687 444 687 444 687 465 c 2,64,-1
 691 1386 l 1,65,66
 630 1432 630 1432 582 1432 c 0,67,68
 459 1432 459 1432 435 1260 c 1,69,-1
 435 1231 l 2,70,71
 435 1154 435 1154 490 1022 c 1,72,-1
 486 1022 l 1,73,74
 195 1298 195 1298 117 1415 c 2,75,-1
 0 1591 l 1,76,-1
 4 1595 l 1,77,78
 219 1528 219 1528 322 1528 c 2,79,-1
 360 1528 l 2,80,81
 452 1528 452 1528 452 1595 c 0,82,83
 452 1676 452 1676 318 1838 c 1,84,-1
 322 1842 l 1,0,1
EndSplineSet
Validated: 1
EndChar

StartChar: U
Encoding: 85 85 56
Width: 1746
Flags: W
LayerCount: 2
Fore
SplineSet
1332 1855 m 1,0,1
 1646 1577 1646 1577 1646 1145 c 1,2,-1
 1642 1141 l 1,3,-1
 1637 1141 l 1,4,5
 1566 1237 1566 1237 1485 1237 c 2,6,-1
 1467 1237 l 1,7,8
 1415 1229 1415 1229 1415 1163 c 1,9,-1
 1441 1071 l 1,10,11
 1424 911 1424 911 1424 827 c 0,12,13
 1424 587 1424 587 1511 523 c 1,14,-1
 1546 514 l 1,15,16
 1619 514 1619 514 1703 701 c 1,17,-1
 1707 701 l 2,18,19
 1725 701 1725 701 1742 597 c 1,20,-1
 1742 570 l 2,21,22
 1742 494 1742 494 1611 322 c 1,23,-1
 1611 318 l 1,24,25
 1646 217 1646 217 1646 161 c 0,26,27
 1646 57 1646 57 1563 13 c 1,28,29
 1447 144 1447 144 1293 144 c 2,30,-1
 1267 144 l 2,31,32
 1108 144 1108 144 880 0 c 1,33,34
 861 4 861 4 736 74 c 1,35,36
 577 144 577 144 470 144 c 0,37,38
 308 144 308 144 179 9 c 1,39,-1
 174 9 l 1,40,41
 100 55 100 55 100 148 c 2,42,-1
 100 170 l 2,43,44
 100 216 100 216 135 318 c 1,45,46
 0 483 0 483 0 583 c 0,47,48
 0 648 0 648 39 697 c 1,49,50
 124 509 124 509 200 509 c 2,51,-1
 209 509 l 2,52,53
 301 509 301 509 318 793 c 1,54,-1
 318 862 l 2,55,56
 318 944 318 944 300 1076 c 1,57,58
 327 1124 327 1124 327 1167 c 0,59,60
 327 1232 327 1232 266 1232 c 2,61,-1
 253 1232 l 2,62,63
 194 1232 194 1232 100 1137 c 1,64,-1
 96 1137 l 1,65,66
 96 1567 96 1567 409 1846 c 1,67,-1
 414 1846 l 1,68,-1
 414 1842 l 1,69,70
 335 1687 335 1687 335 1559 c 0,71,72
 335 1451 335 1451 431 1406 c 1,73,-1
 483 1398 l 1,74,-1
 527 1398 l 2,75,76
 590 1398 590 1398 714 1450 c 1,77,-1
 718 1446 l 1,78,-1
 718 1441 l 1,79,80
 588 1257 588 1257 588 1015 c 2,81,-1
 588 962 l 2,82,83
 588 866 588 866 618 679 c 1,84,85
 618 587 618 587 544 483 c 1,86,-1
 544 479 l 1,87,88
 754 430 754 430 858 309 c 1,89,-1
 875 296 l 1,90,91
 1023 442 1023 442 1137 470 c 1,92,-1
 1202 483 l 1,93,94
 1128 586 1128 586 1128 688 c 2,95,-1
 1128 710 l 1,96,97
 1158 868 1158 868 1158 997 c 0,98,99
 1158 1246 1158 1246 1028 1454 c 1,100,-1
 1032 1454 l 1,101,102
 1158 1402 1158 1402 1224 1402 c 2,103,-1
 1250 1402 l 2,104,105
 1372 1402 1372 1402 1402 1520 c 1,106,-1
 1406 1555 l 1,107,-1
 1406 1589 l 2,108,109
 1406 1683 1406 1683 1332 1851 c 1,110,-1
 1332 1855 l 1,0,1
EndSplineSet
Validated: 1
EndChar

StartChar: V
Encoding: 86 86 57
Width: 1867
Flags: W
LayerCount: 2
Fore
SplineSet
1147 1852 m 1,0,1
 1868 1554 1868 1554 1868 953 c 2,2,-1
 1868 891 l 1,3,-1
 1860 891 l 1,4,5
 1801 1101 1801 1101 1605 1270 c 1,6,7
 1592 1258 1592 1258 1270 553 c 1,8,-1
 1291 549 l 1,9,-1
 1312 549 l 2,10,11
 1351 551 1351 551 1407 586 c 1,12,-1
 1411 582 l 1,13,-1
 1411 577 l 1,14,15
 1305 450 1305 450 1270 450 c 1,16,17
 1270 440 1270 440 1196 429 c 1,18,-1
 1130 309 l 1,19,-1
 1184 309 l 2,20,21
 1319 309 1319 309 1539 470 c 1,22,-1
 1543 470 l 1,23,-1
 1543 462 l 1,24,25
 1414 241 1414 241 1134 140 c 1,26,27
 993 110 993 110 990 103 c 0,28,29
 945 0 945 0 936 0 c 1,30,-1
 870 107 l 1,31,32
 634 150 634 150 495 264 c 1,33,34
 359 393 359 393 326 462 c 1,35,-1
 326 466 l 1,36,-1
 330 466 l 1,37,38
 551 305 551 305 701 305 c 2,39,-1
 738 305 l 1,40,-1
 738 309 l 1,41,-1
 672 429 l 1,42,-1
 664 429 l 2,43,44
 564 429 564 429 462 577 c 1,45,-1
 462 582 l 1,46,-1
 466 582 l 1,47,48
 524 544 524 544 573 544 c 1,49,-1
 598 549 l 1,50,-1
 272 1266 l 1,51,-1
 268 1266 l 1,52,53
 97 1125 97 1125 37 961 c 0,54,55
 11 887 11 887 4 887 c 2,56,-1
 0 887 l 1,57,-1
 0 903 l 2,58,59
 0 1568 0 1568 726 1848 c 1,60,61
 503 1635 503 1635 503 1448 c 0,62,63
 503 1417 503 1417 643 1130 c 1,64,-1
 928 516 l 1,65,66
 954 552 954 552 1361 1423 c 1,67,-1
 1365 1444 l 1,68,-1
 1365 1468 l 2,69,70
 1365 1605 1365 1605 1200 1798 c 1,71,-1
 1147 1848 l 1,72,-1
 1147 1852 l 1,0,1
EndSplineSet
Validated: 1
EndChar

StartChar: W
Encoding: 87 87 58
Width: 1696
Flags: W
LayerCount: 2
Fore
SplineSet
959 1865 m 1,0,-1
 967 1865 l 1,1,2
 1166 1817 1166 1817 1404 1614 c 1,3,4
 1591 1419 1591 1419 1663 1223 c 1,5,-1
 1696 1120 l 1,6,-1
 1692 1120 l 1,7,8
 1583 1241 1583 1241 1523 1260 c 1,9,-1
 1519 1260 l 1,10,-1
 1519 1128 l 1,11,12
 1602 1072 1602 1072 1638 922 c 1,13,-1
 1642 885 l 1,14,-1
 1638 885 l 1,15,16
 1561 971 1561 971 1515 976 c 1,17,-1
 1494 976 l 2,18,19
 1487 975 1487 975 1433 729 c 2,20,-1
 1375 457 l 1,21,-1
 1387 457 l 2,22,23
 1504 457 1504 457 1564 626 c 1,24,-1
 1573 626 l 1,25,-1
 1573 622 l 2,26,27
 1573 433 1573 433 1408 210 c 1,28,29
 1260 61 1260 61 1161 12 c 1,30,-1
 1157 16 l 1,31,-1
 1157 21 l 1,32,-1
 1161 103 l 1,33,34
 1161 502 1161 502 840 811 c 1,35,36
 535 488 535 488 535 123 c 2,37,-1
 535 66 l 1,38,-1
 539 4 l 1,39,-1
 535 0 l 1,40,41
 240 169 240 169 152 445 c 0,42,43
 132 511 132 511 119 613 c 1,44,-1
 123 613 l 1,45,-1
 185 506 l 1,46,47
 240 445 240 445 317 445 c 1,48,-1
 317 449 l 1,49,-1
 202 980 l 1,50,-1
 193 980 l 2,51,52
 144 980 144 980 62 889 c 1,53,-1
 62 897 l 2,54,55
 62 1010 62 1010 156 1111 c 1,56,-1
 177 1124 l 1,57,-1
 177 1247 l 1,58,-1
 173 1247 l 1,59,60
 108 1227 108 1227 0 1107 c 1,61,-1
 0 1116 l 1,62,63
 44 1265 44 1265 136 1416 c 0,64,65
 198 1516 198 1516 342 1651 c 1,66,67
 498 1778 498 1778 733 1857 c 1,68,-1
 733 1852 l 1,69,70
 408 1574 408 1574 408 1116 c 2,71,-1
 408 1103 l 2,72,73
 408 782 408 782 560 683 c 1,74,-1
 564 687 l 1,75,76
 564 705 564 705 733 943 c 1,77,78
 770 1028 770 1028 770 1074 c 1,79,-1
 766 1074 l 1,80,-1
 671 1087 l 1,81,-1
 671 1091 l 1,82,83
 791 1191 791 1191 836 1309 c 1,84,85
 836 1326 836 1326 844 1326 c 2,86,-1
 848 1326 l 1,87,88
 892 1196 892 1196 1025 1103 c 1,89,-1
 1025 1099 l 1,90,-1
 926 1087 l 1,91,-1
 926 1054 l 2,92,93
 926 956 926 956 1091 766 c 1,94,95
 1125 719 1125 719 1132 696 c 1,96,97
 1194 722 1194 722 1231 811 c 0,98,99
 1288 943 1288 943 1288 1124 c 0,100,101
 1288 1540 1288 1540 1009 1824 c 1,102,-1
 959 1865 l 1,0,-1
EndSplineSet
Validated: 1
EndChar

StartChar: X
Encoding: 88 88 59
Width: 1692
Flags: W
LayerCount: 2
Fore
SplineSet
647 1848 m 1,0,-1
 647 1844 l 1,1,2
 489 1672 489 1672 489 1540 c 1,3,-1
 497 1490 l 1,4,5
 606 1605 606 1605 678 1621 c 1,6,-1
 678 1617 l 1,7,8
 574 1514 574 1514 574 1440 c 2,9,-1
 574 1432 l 2,10,11
 574 1363 574 1363 681 1282 c 1,12,-1
 897 1074 l 1,13,-1
 1263 1478 l 1,14,-1
 1271 1513 l 1,15,-1
 1271 1525 l 2,16,17
 1271 1637 1271 1637 1109 1725 c 1,18,-1
 1097 1729 l 1,19,-1
 1097 1736 l 1,20,-1
 1167 1736 l 2,21,22
 1363 1736 1363 1736 1482 1621 c 1,23,24
 1598 1499 1598 1499 1598 1294 c 2,25,-1
 1598 1286 l 1,26,-1
 1590 1286 l 1,27,28
 1522 1382 1522 1382 1405 1382 c 0,29,30
 1357 1382 1357 1382 1274 1282 c 1,31,-1
 970 978 l 1,32,33
 1341 624 1341 624 1355 624 c 2,34,-1
 1359 624 l 2,35,36
 1461 624 1461 624 1590 809 c 1,37,38
 1644 915 1644 915 1644 1028 c 1,39,-1
 1652 1028 l 1,40,41
 1675 899 1675 899 1675 809 c 2,42,-1
 1675 758 l 2,43,44
 1675 324 1675 324 1213 77 c 0,45,46
 1100 19 1100 19 1032 0 c 1,47,-1
 1032 8 l 1,48,49
 1186 178 1186 178 1186 289 c 2,50,-1
 1186 316 l 2,51,52
 1186 358 1186 358 1174 358 c 1,53,54
 1142 291 1142 291 997 227 c 1,55,56
 1105 335 1105 335 1105 420 c 0,57,58
 1105 481 1105 481 963 604 c 1,59,60
 877 699 877 699 789 782 c 1,61,62
 408 377 408 377 408 354 c 2,63,-1
 404 323 l 1,64,65
 404 225 404 225 551 131 c 1,66,-1
 578 119 l 1,67,-1
 578 112 l 1,68,-1
 508 112 l 2,69,70
 192 112 192 112 100 393 c 1,71,72
 85 454 85 454 77 558 c 1,73,-1
 81 562 l 1,74,-1
 85 562 l 1,75,76
 158 466 158 466 270 466 c 0,77,78
 315 466 315 466 358 524 c 1,79,-1
 708 874 l 1,80,-1
 323 1224 l 1,81,-1
 312 1224 l 2,82,83
 226 1224 226 1224 92 1051 c 1,84,85
 35 938 35 938 35 843 c 2,86,-1
 35 816 l 1,87,-1
 27 816 l 1,88,89
 0 954 0 954 0 1063 c 0,90,91
 0 1620 0 1620 647 1848 c 1,0,-1
EndSplineSet
Validated: 1
EndChar

StartChar: Y
Encoding: 89 89 60
Width: 1641
Flags: W
LayerCount: 2
Fore
SplineSet
557 1852 m 1,0,-1
 561 1848 l 1,1,-1
 561 1844 l 1,2,3
 517 1692 517 1692 515 1567 c 0,4,5
 515 1292 515 1292 721 1077 c 1,6,7
 771 1180 771 1180 813 1404 c 1,8,-1
 813 1412 l 1,9,-1
 821 1412 l 1,10,11
 881 1073 881 1073 913 1073 c 1,12,13
 1110 1286 1110 1286 1110 1563 c 2,14,-1
 1110 1575 l 2,15,16
 1110 1693 1110 1693 1064 1844 c 1,17,-1
 1068 1848 l 1,18,19
 1626 1590 1626 1590 1626 934 c 2,20,-1
 1626 913 l 1,21,-1
 1617 913 l 1,22,23
 1586 1046 1586 1046 1437 1215 c 1,24,25
 1347 1288 1347 1288 1295 1303 c 1,26,27
 1217 1113 1217 1113 951 892 c 1,28,-1
 943 302 l 1,29,-1
 976 297 l 1,30,31
 1006 297 1006 297 1048 331 c 1,32,-1
 1052 331 l 1,33,-1
 1052 327 l 1,34,35
 1009 239 1009 239 943 239 c 1,36,-1
 943 184 l 1,37,38
 1062 199 1062 199 1215 327 c 1,39,-1
 1219 323 l 1,40,41
 1128 95 1128 95 934 4 c 1,42,-1
 913 0 l 1,43,44
 875 92 875 92 809 92 c 0,45,46
 744 92 744 92 712 4 c 1,47,-1
 708 4 l 1,48,49
 545 74 545 74 448 243 c 1,50,51
 411 317 411 317 411 331 c 1,52,-1
 415 331 l 1,53,54
 588 193 588 193 687 193 c 1,55,-1
 687 239 l 2,56,57
 687 245 687 245 641 256 c 1,58,59
 588 293 588 293 574 339 c 1,60,-1
 578 339 l 1,61,62
 616 306 616 306 645 306 c 2,63,-1
 666 306 l 1,64,-1
 687 310 l 1,65,-1
 683 360 l 1,66,-1
 679 897 l 1,67,68
 413 1119 413 1119 331 1307 c 1,69,70
 195 1260 195 1260 96 1102 c 0,71,72
 39 1007 39 1007 8 918 c 1,73,-1
 0 918 l 1,74,-1
 0 922 l 2,75,76
 0 1597 0 1597 557 1852 c 1,0,-1
EndSplineSet
Validated: 1
EndChar

StartChar: Z
Encoding: 90 90 61
Width: 1602
Flags: W
LayerCount: 2
Fore
SplineSet
339 1844 m 1,0,1
 405 1652 405 1652 585 1652 c 0,2,3
 715 1652 715 1652 1112 1802 c 1,4,5
 1233 1836 1233 1836 1300 1836 c 2,6,-1
 1321 1836 l 2,7,8
 1515 1836 1515 1836 1589 1614 c 0,9,10
 1597 1596 1597 1596 1597 1547 c 2,11,-1
 1597 1518 l 2,12,13
 1597 1442 1597 1442 1551 1376 c 1,14,-1
 1547 1376 l 1,15,16
 1530 1463 1530 1463 1468 1463 c 2,17,-1
 1438 1463 l 2,18,19
 1345 1463 1345 1463 1263 1300 c 1,20,21
 1058 972 1058 972 472 510 c 1,22,23
 820 585 820 585 991 585 c 0,24,25
 1059 585 1059 585 1242 548 c 1,26,-1
 1263 548 l 2,27,28
 1372 548 1372 548 1409 761 c 1,29,-1
 1413 824 l 1,30,31
 1413 959 1413 959 1334 1083 c 1,32,-1
 1334 1091 l 1,33,34
 1585 787 1585 787 1585 531 c 2,35,-1
 1585 523 l 2,36,37
 1585 219 1585 219 1204 29 c 1,38,-1
 1200 29 l 1,39,-1
 1200 33 l 1,40,41
 1246 129 1246 129 1246 180 c 2,42,-1
 1246 209 l 2,43,44
 1246 336 1246 336 1045 360 c 1,45,-1
 1004 360 l 2,46,47
 744 360 744 360 523 205 c 1,48,49
 472 157 472 157 472 117 c 2,50,-1
 472 113 l 2,51,52
 472 52 472 52 581 8 c 1,53,-1
 581 0 l 1,54,-1
 577 0 l 2,55,56
 339 0 339 0 151 146 c 1,57,58
 13 269 13 269 13 489 c 0,59,60
 13 672 13 672 121 953 c 1,61,-1
 130 953 l 1,62,63
 121 920 121 920 121 870 c 0,64,65
 121 761 121 761 217 761 c 0,66,67
 414 761 414 761 778 1167 c 0,68,69
 865 1267 865 1267 983 1438 c 1,70,-1
 983 1443 l 1,71,72
 818 1380 818 1380 686 1380 c 2,73,-1
 656 1380 l 2,74,75
 511 1380 511 1380 318 1472 c 1,76,-1
 305 1476 l 1,77,78
 190 1476 190 1476 130 1271 c 0,79,80
 117 1233 117 1233 117 1175 c 0,81,82
 117 1106 117 1106 142 1016 c 1,83,-1
 134 1016 l 1,84,85
 0 1226 0 1226 0 1388 c 0,86,87
 0 1658 0 1658 339 1844 c 1,0,1
EndSplineSet
Validated: 1
EndChar

StartChar: backslash
Encoding: 92 92 63
Width: 780
Flags: W
LayerCount: 2
Fore
SplineSet
68 1859 m 1,0,-1
 72 1859 l 1,1,2
 201 1683 201 1683 295 1645 c 1,3,-1
 299 1641 l 1,4,5
 249 1572 249 1572 249 1519 c 0,6,7
 249 1483 249 1483 459 858 c 2,8,-1
 623 374 l 1,9,10
 696 297 696 297 783 265 c 1,11,12
 707 131 707 131 707 46 c 1,13,-1
 716 0 l 1,14,-1
 707 0 l 1,15,16
 707 46 707 46 468 122 c 1,17,-1
 463 126 l 1,18,-1
 463 135 l 1,19,20
 522 226 522 226 522 324 c 1,21,-1
 144 1439 l 1,22,23
 101 1508 101 1508 30 1544 c 1,24,25
 9 1544 9 1544 9 1556 c 1,26,27
 68 1648 68 1648 68 1859 c 1,0,-1
EndSplineSet
Validated: 1
EndChar

StartChar: a
Encoding: 97 97 68
Width: 1006
Flags: W
LayerCount: 2
Fore
SplineSet
424 1462 m 1,0,-1
 424 1458 l 1,1,2
 355 1399 355 1399 355 1356 c 1,3,4
 373 1264 373 1264 490 1264 c 2,5,-1
 508 1264 l 2,6,7
 643 1264 643 1264 713 1411 c 1,8,-1
 724 1411 l 1,9,10
 843 1155 843 1155 966 1155 c 2,11,-1
 1002 1155 l 1,12,-1
 1006 1158 l 1,13,-1
 1010 1158 l 1,14,-1
 1010 1155 l 1,15,16
 953 1125 953 1125 922 1049 c 1,17,18
 882 920 882 920 882 807 c 0,19,20
 882 576 882 576 977 478 c 1,21,-1
 1013 452 l 1,22,23
 895 387 895 387 841 222 c 1,24,25
 830 156 830 156 823 156 c 1,26,27
 725 390 725 390 541 390 c 0,28,29
 409 390 409 390 391 269 c 1,30,31
 391 228 391 228 421 185 c 1,32,-1
 421 182 l 1,33,34
 282 220 282 220 219 310 c 1,35,36
 146 387 146 387 146 624 c 0,37,38
 146 663 146 663 77 708 c 1,39,-1
 29 749 l 1,40,-1
 33 752 l 1,41,-1
 59 749 l 1,42,-1
 80 749 l 2,43,44
 215 749 215 749 362 935 c 1,45,-1
 366 935 l 1,46,47
 489 829 489 829 666 829 c 2,48,-1
 684 829 l 1,49,-1
 684 833 l 1,50,51
 669 897 669 897 669 943 c 2,52,-1
 669 990 l 2,53,54
 669 1031 669 1031 680 1082 c 1,55,56
 547 1118 547 1118 454 1118 c 2,57,-1
 439 1118 l 2,58,59
 234 1118 234 1118 234 935 c 2,60,-1
 234 917 l 1,61,-1
 230 913 l 1,62,-1
 234 910 l 1,63,-1
 234 873 l 1,64,-1
 230 873 l 1,65,66
 211 886 211 886 154 1049 c 1,67,68
 88 1166 88 1166 29 1166 c 1,69,-1
 0 1173 l 1,70,-1
 0 1180 l 1,71,72
 62 1183 62 1183 300 1407 c 1,73,74
 367 1459 367 1459 424 1462 c 1,0,-1
388 763 m 1,75,76
 377 715 377 715 377 632 c 2,77,-1
 377 624 l 2,78,79
 377 514 377 514 410 471 c 1,80,-1
 721 489 l 1,81,82
 680 601 680 601 680 705 c 1,83,-1
 677 705 l 2,84,85
 534 705 534 705 388 763 c 1,75,76
EndSplineSet
Validated: 1
EndChar

StartChar: b
Encoding: 98 98 69
Width: 1185
Flags: W
LayerCount: 2
Fore
SplineSet
624 1844 m 1,0,1
 686 1844 686 1844 851 1749 c 1,2,-1
 851 1745 l 1,3,4
 763 1764 763 1764 692 1764 c 2,5,-1
 672 1764 l 2,6,7
 488 1764 488 1764 430 1657 c 0,8,9
 418 1637 418 1637 414 1601 c 1,10,11
 428 1502 428 1502 497 1502 c 2,12,-1
 505 1502 l 2,13,14
 589 1502 589 1502 684 1621 c 1,15,-1
 688 1621 l 1,16,-1
 688 1617 l 1,17,18
 654 1515 654 1515 497 1399 c 1,19,20
 445 1330 445 1330 445 1279 c 2,21,-1
 445 1275 l 2,22,23
 445 1207 445 1207 581 1192 c 1,24,25
 733 1192 733 1192 827 1343 c 1,26,27
 863 1415 863 1415 863 1442 c 1,28,-1
 871 1442 l 1,29,30
 871 1209 871 1209 1050 1120 c 1,31,32
 1078 1111 1078 1111 1078 1104 c 2,33,-1
 1078 1100 l 1,34,35
 978 969 978 969 978 850 c 2,36,-1
 978 810 l 2,37,38
 978 671 978 671 1054 671 c 2,39,-1
 1066 671 l 2,40,41
 1114 671 1114 671 1185 754 c 1,42,-1
 1189 754 l 1,43,-1
 1189 750 l 2,44,45
 1189 541 1189 541 740 321 c 1,46,47
 656 271 656 271 656 186 c 0,48,49
 656 167 656 167 688 90 c 1,50,51
 587 90 587 90 350 321 c 0,52,53
 216 448 216 448 131 448 c 1,54,-1
 131 456 l 1,55,56
 204 456 204 456 259 715 c 1,57,58
 274 829 274 829 274 917 c 0,59,60
 274 1072 274 1072 227 1100 c 0,61,62
 190 1120 190 1120 171 1120 c 2,63,-1
 155 1120 l 2,64,65
 96 1120 96 1120 4 1005 c 1,66,-1
 0 1009 l 1,67,68
 9 1074 9 1074 187 1287 c 0,69,70
 215 1323 215 1323 215 1351 c 2,71,-1
 215 1355 l 2,72,73
 215 1617 215 1617 60 1768 c 1,74,-1
 52 1780 l 1,75,-1
 56 1780 l 1,76,77
 123 1733 123 1733 199 1733 c 0,78,79
 273 1733 273 1733 537 1832 c 1,80,-1
 624 1844 l 1,0,1
27 1804 m 1,81,-1
 49 1782 l 1,82,-1
 45 1782 l 1,83,-1
 27 1799 l 1,84,-1
 27 1804 l 1,81,-1
521 1092 m 1,85,-1
 465 1096 l 1,86,-1
 457 897 l 1,87,-1
 457 854 l 2,88,89
 457 637 457 637 497 416 c 1,90,91
 593 519 593 519 791 575 c 1,92,93
 744 777 744 777 744 1053 c 1,94,-1
 748 1136 l 1,95,96
 624 1092 624 1092 521 1092 c 1,85,-1
EndSplineSet
Validated: 1
EndChar

StartChar: c
Encoding: 99 99 70
Width: 1052
Flags: W
LayerCount: 2
Fore
SplineSet
650 1579 m 1,0,-1
 650 1571 l 1,1,2
 545 1493 545 1493 545 1395 c 0,3,4
 545 1290 545 1290 744 1256 c 1,5,-1
 785 1256 l 2,6,7
 929 1256 929 1256 973 1361 c 1,8,-1
 977 1399 l 2,9,10
 977 1432 977 1432 965 1463 c 1,11,-1
 969 1466 l 1,12,-1
 973 1466 l 1,13,14
 1052 1379 1052 1379 1052 1324 c 2,15,-1
 1052 1316 l 2,16,17
 1052 1241 1052 1241 935 1143 c 1,18,19
 781 953 781 953 781 771 c 2,20,-1
 781 756 l 1,21,-1
 774 756 l 1,22,-1
 774 820 l 2,23,24
 774 1070 774 1070 503 1162 c 1,25,26
 378 1195 378 1195 312 1196 c 1,27,-1
 312 1192 l 1,28,29
 409 1039 409 1039 409 768 c 2,30,-1
 409 711 l 1,31,-1
 406 591 l 1,32,33
 596 482 596 482 699 482 c 256,34,35
 802 482 802 482 864 647 c 1,36,-1
 932 775 l 1,37,-1
 939 775 l 1,38,39
 905 452 905 452 883 452 c 1,40,41
 721 306 721 306 721 276 c 2,42,-1
 721 253 l 2,43,44
 721 230 721 230 759 200 c 1,45,-1
 759 197 l 1,46,-1
 755 197 l 2,47,48
 655 197 655 197 364 298 c 1,49,50
 98 416 98 416 4 614 c 1,51,-1
 4 617 l 1,52,-1
 8 617 l 1,53,54
 57 580 57 580 86 580 c 2,55,-1
 90 580 l 2,56,57
 147 580 147 580 165 681 c 1,58,-1
 165 749 l 2,59,60
 165 918 165 918 41 1061 c 1,61,-1
 0 1094 l 1,62,63
 90 1106 90 1106 158 1132 c 1,64,65
 224 1164 224 1164 282 1237 c 1,66,67
 481 1512 481 1512 650 1579 c 1,0,-1
EndSplineSet
Validated: 1
EndChar

StartChar: d
Encoding: 100 100 71
Width: 1193
Flags: W
LayerCount: 2
Fore
SplineSet
575 1851 m 0,0,1
 638 1851 638 1851 922 1747 c 1,2,-1
 994 1739 l 1,3,4
 1089 1739 1089 1739 1158 1803 c 1,5,-1
 1162 1803 l 1,6,7
 982 1632 982 1632 982 1391 c 2,8,-1
 982 1344 l 2,9,10
 982 1320 982 1320 1166 1088 c 1,11,12
 1194 1029 1194 1029 1194 1012 c 1,13,-1
 1189 1012 l 1,14,15
 1104 1124 1104 1124 1030 1124 c 2,16,-1
 1022 1124 l 1,17,18
 931 1102 931 1102 931 1032 c 1,19,20
 922 1011 922 1011 922 949 c 2,21,-1
 922 901 l 2,22,23
 922 581 922 581 1046 462 c 1,24,-1
 1066 458 l 1,25,-1
 1066 449 l 1,26,-1
 1062 449 l 2,27,28
 966 449 966 449 763 246 c 1,29,30
 587 90 587 90 516 90 c 2,31,-1
 503 90 l 1,32,-1
 503 94 l 1,33,34
 535 147 535 147 535 190 c 2,35,-1
 535 195 l 2,36,37
 535 300 535 300 363 366 c 1,38,39
 0 569 0 569 0 758 c 1,40,-1
 4 758 l 1,41,42
 81 673 81 673 124 673 c 2,43,-1
 144 673 l 1,44,45
 216 691 216 691 216 817 c 0,46,47
 216 977 216 977 112 1108 c 1,48,-1
 184 1144 l 1,49,50
 319 1250 319 1250 319 1436 c 1,51,-1
 327 1444 l 1,52,-1
 332 1444 l 1,53,54
 338 1361 338 1361 435 1260 c 1,55,56
 527 1196 527 1196 615 1196 c 1,57,58
 751 1212 751 1212 751 1284 c 2,59,-1
 751 1288 l 2,60,61
 751 1372 751 1372 595 1488 c 1,62,63
 516 1575 516 1575 507 1627 c 1,64,-1
 516 1627 l 1,65,66
 599 1508 599 1508 687 1508 c 2,67,-1
 695 1508 l 1,68,69
 779 1522 779 1522 779 1595 c 2,70,-1
 779 1615 l 2,71,72
 779 1724 779 1724 595 1768 c 1,73,-1
 519 1771 l 1,74,-1
 499 1771 l 2,75,76
 431 1771 431 1771 339 1752 c 1,77,-1
 339 1759 l 1,78,79
 519 1851 519 1851 575 1851 c 0,0,1
423 1178 m 1,80,-1
 423 1080 l 2,81,82
 423 838 423 838 382 645 c 1,83,84
 555 597 555 597 661 494 c 1,85,86
 699 747 699 747 699 933 c 1,87,88
 695 1087 695 1087 688 1141 c 1,89,-1
 627 1137 l 1,90,91
 540 1137 540 1137 423 1178 c 1,80,-1
EndSplineSet
Validated: 1
EndChar

StartChar: e
Encoding: 101 101 72
Width: 975
Flags: W
LayerCount: 2
Fore
SplineSet
663 1423 m 1,0,-1
 667 1419 l 1,1,2
 621 1355 621 1355 621 1300 c 0,3,4
 621 1169 621 1169 972 1100 c 1,5,-1
 975 1097 l 1,6,-1
 975 1093 l 1,7,-1
 688 858 l 1,8,9
 523 739 523 739 400 739 c 1,10,-1
 400 606 l 1,11,12
 528 469 528 469 656 469 c 0,13,14
 705 469 705 469 705 497 c 1,15,16
 747 658 747 658 870 774 c 0,17,18
 920 825 920 825 975 858 c 1,19,-1
 975 855 l 1,20,21
 803 647 803 647 803 483 c 0,22,23
 803 343 803 343 930 213 c 1,24,-1
 930 209 l 1,25,-1
 856 209 l 2,26,27
 515 209 515 209 189 437 c 0,28,29
 105 500 105 500 0 616 c 1,30,-1
 0 620 l 1,31,32
 54 563 54 563 95 563 c 0,33,34
 185 563 185 563 203 714 c 1,35,-1
 203 735 l 2,36,37
 203 906 203 906 0 1016 c 1,38,-1
 137 1093 l 1,39,40
 257 1178 257 1178 386 1339 c 1,41,42
 470 1423 470 1423 663 1423 c 1,0,-1
389 1205 m 1,43,44
 380 1183 380 1183 312 1132 c 1,45,46
 403 963 403 963 403 830 c 2,47,-1
 403 823 l 1,48,49
 529 867 529 867 638 974 c 1,50,-1
 663 1016 l 1,51,-1
 660 1016 l 1,52,53
 556 1036 556 1036 414 1181 c 1,54,-1
 389 1205 l 1,43,44
EndSplineSet
Validated: 1
EndChar

StartChar: f
Encoding: 102 102 73
Width: 1068
Flags: W
LayerCount: 2
Fore
SplineSet
474 1652 m 1,0,1
 543 1631 543 1631 676 1506 c 1,2,3
 822 1333 822 1333 873 1328 c 1,4,5
 961 1450 961 1450 1107 1553 c 1,6,-1
 1107 1549 l 1,7,8
 881 1293 881 1293 881 960 c 2,9,-1
 881 881 l 1,10,-1
 873 881 l 1,11,12
 737 1352 737 1352 478 1352 c 1,13,-1
 404 1336 l 1,14,-1
 545 976 l 1,15,16
 593 984 593 984 715 1083 c 1,17,-1
 719 1083 l 1,18,19
 678 961 678 961 565 881 c 1,20,-1
 565 877 l 2,21,22
 565 506 565 506 602 367 c 1,23,24
 771 328 771 328 806 328 c 1,25,-1
 826 332 l 1,26,-1
 830 332 l 1,27,-1
 830 328 l 1,28,-1
 715 277 l 1,29,30
 621 218 621 218 621 150 c 0,31,32
 621 88 621 88 704 4 c 1,33,-1
 700 0 l 1,34,-1
 696 0 l 1,35,36
 517 29 517 29 261 186 c 0,37,38
 189 233 189 233 123 289 c 1,39,-1
 123 292 l 1,40,-1
 126 292 l 1,41,-1
 146 289 l 1,42,43
 289 289 289 289 289 601 c 0,44,45
 289 702 289 702 277 790 c 1,46,47
 204 790 204 790 103 688 c 1,48,-1
 99 688 l 1,49,-1
 99 692 l 1,50,51
 166 834 166 834 281 897 c 1,52,53
 221 1170 221 1170 123 1170 c 2,54,-1
 115 1170 l 2,55,56
 73 1170 73 1170 4 1107 c 1,57,-1
 0 1107 l 1,58,-1
 0 1111 l 2,59,60
 0 1191 0 1191 75 1292 c 1,61,62
 119 1319 119 1319 289 1395 c 1,63,64
 470 1504 470 1504 470 1609 c 2,65,-1
 470 1628 l 1,66,-1
 466 1648 l 1,67,-1
 470 1652 l 1,68,-1
 474 1652 l 1,0,1
EndSplineSet
Validated: 1
EndChar

StartChar: g
Encoding: 103 103 74
Width: 1013
Flags: W
LayerCount: 2
Fore
SplineSet
716 1513 m 1,0,-1
 720 1509 l 1,1,-1
 720 1506 l 1,2,3
 685 1436 685 1436 685 1366 c 0,4,5
 685 1240 685 1240 796 1188 c 1,6,-1
 838 1181 l 1,7,-1
 845 1181 l 2,8,9
 923 1181 923 1181 1010 1265 c 1,10,-1
 1013 1265 l 1,11,-1
 1013 1258 l 2,12,13
 1013 1194 1013 1194 926 891 c 1,14,15
 908 804 908 804 908 741 c 2,16,-1
 908 688 l 2,17,18
 908 585 908 585 964 444 c 1,19,-1
 964 440 l 1,20,21
 559 288 559 288 559 140 c 2,22,-1
 559 136 l 2,23,24
 559 75 559 75 664 52 c 1,25,-1
 664 42 l 1,26,27
 627 28 627 28 608 28 c 0,28,29
 545 28 545 28 279 133 c 0,30,31
 251 143 251 143 227 143 c 2,32,-1
 203 143 l 2,33,34
 168 143 168 143 168 101 c 2,35,-1
 168 94 l 2,36,37
 168 55 168 55 189 3 c 1,38,-1
 185 0 l 1,39,-1
 182 0 l 1,40,41
 56 108 56 108 56 224 c 0,42,43
 56 356 56 356 234 520 c 1,44,-1
 238 520 l 1,45,-1
 238 517 l 1,46,47
 168 409 168 409 168 353 c 2,48,-1
 168 332 l 2,49,50
 168 250 168 250 318 238 c 1,51,-1
 381 238 l 1,52,-1
 433 241 l 1,53,54
 487 392 487 392 639 475 c 1,55,-1
 706 507 l 1,56,-1
 716 688 l 1,57,58
 525 688 525 688 426 587 c 1,59,60
 395 538 395 538 395 496 c 2,61,-1
 395 440 l 1,62,-1
 398 437 l 1,63,-1
 398 433 l 1,64,-1
 395 430 l 1,65,-1
 391 430 l 1,66,67
 330 553 330 553 178 667 c 1,68,69
 148 680 148 680 147 688 c 1,70,71
 220 848 220 848 220 947 c 2,72,-1
 220 975 l 2,73,74
 220 1090 220 1090 87 1132 c 1,75,76
 0 1143 0 1143 0 1149 c 0,77,78
 33 1192 33 1192 161 1216 c 1,79,80
 335 1216 335 1216 395 1299 c 1,81,82
 536 1442 536 1442 597 1474 c 0,83,84
 652 1500 652 1500 716 1513 c 1,0,-1
479 1254 m 1,85,86
 433 1194 433 1194 388 1177 c 1,87,88
 437 1006 437 1006 437 835 c 2,89,-1
 437 758 l 1,90,91
 548 800 548 800 646 800 c 2,92,-1
 716 800 l 1,93,-1
 716 1072 l 1,94,-1
 632 1118 l 1,95,96
 581 1137 581 1137 479 1254 c 1,85,86
EndSplineSet
Validated: 1
EndChar

StartChar: h
Encoding: 104 104 75
Width: 1240
Flags: W
LayerCount: 2
Fore
SplineSet
671 1852 m 1,0,1
 726 1852 726 1852 919 1754 c 1,2,-1
 919 1745 l 1,3,4
 816 1767 816 1767 735 1767 c 2,5,-1
 727 1767 l 2,6,7
 518 1767 518 1767 457 1643 c 1,8,-1
 449 1604 l 1,9,-1
 449 1574 l 1,10,11
 466 1484 466 1484 534 1484 c 2,12,-1
 547 1484 l 2,13,14
 641 1484 641 1484 731 1613 c 1,15,-1
 739 1613 l 1,16,17
 715 1508 715 1508 551 1386 c 1,18,19
 483 1320 483 1320 483 1241 c 1,20,21
 500 1143 500 1143 581 1143 c 2,22,-1
 620 1143 l 2,23,24
 761 1143 761 1143 863 1309 c 1,25,26
 906 1393 906 1393 906 1476 c 1,27,-1
 915 1476 l 1,28,29
 945 1268 945 1268 1009 1138 c 1,30,31
 1094 1014 1094 1014 1154 1014 c 1,32,-1
 1167 1001 l 1,33,34
 1000 864 1000 864 1000 685 c 1,35,36
 1015 518 1015 518 1111 518 c 2,37,-1
 1137 518 l 2,38,39
 1169 518 1169 518 1239 561 c 1,40,-1
 1244 557 l 1,41,-1
 1244 553 l 1,42,43
 1076 292 1076 292 791 142 c 1,44,45
 728 97 728 97 560 27 c 1,46,-1
 560 31 l 1,47,48
 821 299 821 299 821 681 c 0,49,50
 821 854 821 854 765 1070 c 1,51,52
 643 1006 643 1006 543 1006 c 2,53,-1
 492 1006 l 1,54,-1
 479 707 l 1,55,56
 479 483 479 483 564 442 c 1,57,58
 586 436 586 436 586 429 c 1,59,60
 431 361 431 361 363 206 c 1,61,-1
 355 198 l 1,62,63
 256 357 256 357 107 412 c 1,64,-1
 107 424 l 1,65,66
 162 424 162 424 231 544 c 1,67,68
 295 670 295 670 295 852 c 2,69,-1
 295 856 l 2,70,71
 295 1078 295 1078 192 1078 c 0,72,73
 110 1078 110 1078 4 950 c 1,74,-1
 0 954 l 1,75,76
 0 1009 0 1009 201 1254 c 0,77,78
 231 1292 231 1292 231 1322 c 2,79,-1
 231 1331 l 2,80,81
 231 1604 231 1604 68 1767 c 1,82,-1
 56 1784 l 1,83,-1
 60 1784 l 1,84,85
 132 1732 132 1732 214 1732 c 256,86,87
 296 1732 296 1732 577 1839 c 1,88,-1
 671 1852 l 1,0,1
29 1809 m 1,89,-1
 48 1790 l 1,90,-1
 43 1790 l 1,91,-1
 29 1804 l 1,92,-1
 29 1809 l 1,89,-1
EndSplineSet
Validated: 1
EndChar

StartChar: i
Encoding: 105 105 76
Width: 546
Flags: W
LayerCount: 2
Fore
SplineSet
267 1828 m 1,0,1
 341 1689 341 1689 457 1638 c 0,2,3
 480 1629 480 1629 480 1623 c 2,4,-1
 480 1619 l 1,5,6
 346 1590 346 1590 298 1530 c 1,7,-1
 267 1479 l 1,8,-1
 263 1479 l 1,9,10
 263 1515 263 1515 182 1572 c 1,11,12
 89 1619 89 1619 46 1619 c 1,13,-1
 46 1623 l 1,14,-1
 136 1673 l 1,15,16
 229 1760 229 1760 263 1828 c 1,17,-1
 267 1828 l 1,0,1
279 1390 m 1,18,19
 388 1263 388 1263 472 1263 c 1,20,-1
 519 1270 l 1,21,-1
 523 1266 l 1,22,-1
 523 1263 l 2,23,24
 523 1170 523 1170 399 1061 c 1,25,-1
 399 1057 l 1,26,27
 482 1057 482 1057 554 1143 c 1,28,-1
 554 1135 l 1,29,30
 467 968 467 968 395 968 c 1,31,-1
 391 755 l 1,32,33
 391 519 391 519 472 519 c 2,34,-1
 515 519 l 1,35,-1
 534 523 l 1,36,-1
 538 519 l 1,37,-1
 538 515 l 1,38,39
 287 217 287 217 287 70 c 2,40,-1
 287 58 l 1,41,-1
 279 58 l 1,42,43
 279 213 279 213 27 511 c 1,44,-1
 19 527 l 1,45,-1
 23 531 l 1,46,-1
 43 527 l 1,47,-1
 81 527 l 2,48,49
 163 527 163 527 163 736 c 2,50,-1
 163 930 l 2,51,52
 163 980 163 980 143 980 c 1,53,54
 56 1020 56 1020 0 1150 c 1,55,-1
 4 1150 l 1,56,57
 71 1069 71 1069 139 1069 c 2,58,-1
 159 1069 l 1,59,60
 35 1177 35 1177 35 1255 c 2,61,-1
 35 1270 l 1,62,-1
 39 1274 l 1,63,-1
 39 1278 l 1,64,-1
 85 1270 l 1,65,-1
 89 1270 l 2,66,67
 175 1270 175 1270 279 1390 c 1,18,19
EndSplineSet
Validated: 1
EndChar

StartChar: j
Encoding: 106 106 77
Width: 748
Flags: W
LayerCount: 2
Fore
SplineSet
467 1844 m 1,0,-1
 564 1720 l 1,1,-1
 677 1648 l 1,2,-1
 677 1645 l 1,3,4
 547 1618 547 1618 504 1562 c 1,5,-1
 470 1509 l 1,6,-1
 467 1509 l 1,7,8
 467 1543 467 1543 388 1599 c 1,9,10
 297 1645 297 1645 256 1645 c 1,11,-1
 256 1648 l 1,12,-1
 342 1697 l 1,13,14
 417 1765 417 1765 467 1844 c 1,0,-1
482 1438 m 1,15,16
 587 1313 587 1313 655 1313 c 2,17,-1
 674 1313 l 1,18,-1
 719 1317 l 1,19,-1
 719 1306 l 2,20,21
 719 1221 719 1221 595 1114 c 1,22,-1
 610 1114 l 2,23,24
 680 1114 680 1114 749 1197 c 1,25,-1
 753 1197 l 1,26,-1
 753 1193 l 1,27,28
 688 1057 688 1057 595 1020 c 1,29,30
 583 983 583 983 576 866 c 1,31,32
 576 699 576 699 651 655 c 1,33,-1
 670 655 l 2,34,35
 699 655 699 655 715 689 c 1,36,-1
 726 689 l 1,37,-1
 726 677 l 2,38,39
 726 631 726 631 576 324 c 1,40,41
 489 122 489 122 489 15 c 2,42,-1
 489 -11 l 1,43,-1
 482 -11 l 1,44,-1
 482 -3 l 2,45,46
 482 138 482 138 252 226 c 1,47,48
 154 279 154 279 87 358 c 0,49,50
 27 430 27 430 0 606 c 1,51,-1
 0 617 l 1,52,-1
 4 617 l 1,53,54
 116 414 116 414 199 414 c 2,55,-1
 203 414 l 2,56,57
 359 414 359 414 388 798 c 1,58,-1
 388 862 l 1,59,60
 379 1035 379 1035 357 1035 c 0,61,62
 314 1035 314 1035 237 1148 c 0,63,64
 211 1190 211 1190 211 1204 c 1,65,66
 285 1122 285 1122 354 1122 c 2,67,-1
 365 1122 l 1,68,69
 245 1235 245 1235 245 1295 c 2,70,-1
 245 1325 l 1,71,-1
 290 1321 l 1,72,-1
 305 1321 l 2,73,74
 382 1321 382 1321 482 1438 c 1,15,16
EndSplineSet
Validated: 1
EndChar

StartChar: k
Encoding: 107 107 78
Width: 1247
Flags: W
LayerCount: 2
Fore
SplineSet
644 1844 m 1,0,1
 710 1844 710 1844 878 1746 c 1,2,-1
 878 1741 l 1,3,4
 792 1762 792 1762 718 1762 c 2,5,-1
 694 1762 l 2,6,7
 499 1762 499 1762 439 1643 c 1,8,-1
 431 1606 l 1,9,-1
 431 1577 l 1,10,11
 446 1491 446 1491 517 1491 c 2,12,-1
 533 1491 l 2,13,14
 612 1491 612 1491 702 1614 c 1,15,-1
 710 1614 l 1,16,17
 688 1517 688 1517 521 1388 c 1,18,19
 451 1307 451 1307 451 1233 c 2,20,-1
 451 1220 l 2,21,22
 451 1125 451 1125 566 1114 c 1,23,-1
 603 1114 l 1,24,25
 763 1141 763 1141 763 1265 c 1,26,-1
 747 1347 l 1,27,-1
 755 1347 l 1,28,29
 831 1300 831 1300 919 1089 c 0,30,31
 956 1007 956 1007 1010 1007 c 1,32,33
 1052 1018 1052 1018 1100 1064 c 1,34,-1
 1104 1060 l 1,35,-1
 1104 1003 l 2,36,37
 1104 875 1104 875 854 781 c 1,38,-1
 829 757 l 1,39,-1
 829 752 l 1,40,-1
 858 752 l 2,41,42
 972 752 972 752 1083 851 c 1,43,-1
 1087 847 l 1,44,45
 1018 662 1018 662 1018 539 c 0,46,47
 1018 409 1018 409 1096 395 c 1,48,-1
 1108 395 l 2,49,50
 1164 395 1164 395 1252 494 c 1,51,-1
 1256 494 l 1,52,-1
 1256 490 l 1,53,54
 1154 251 1154 251 849 125 c 1,55,56
 643 51 643 51 599 51 c 1,57,-1
 599 59 l 1,58,59
 841 156 841 156 841 371 c 0,60,61
 841 494 841 494 772 621 c 1,62,63
 643 662 643 662 538 662 c 1,64,-1
 538 658 l 1,65,-1
 533 613 l 1,66,-1
 533 601 l 2,67,68
 533 514 533 514 632 404 c 1,69,-1
 632 391 l 1,70,71
 507 345 507 345 435 223 c 1,72,-1
 419 190 l 1,73,-1
 406 190 l 1,74,75
 406 231 406 231 263 342 c 1,76,77
 185 388 185 388 185 395 c 1,78,79
 328 559 328 559 328 802 c 1,80,81
 321 1050 321 1050 189 1097 c 1,82,-1
 160 1097 l 2,83,84
 100 1097 100 1097 4 978 c 1,85,-1
 0 982 l 1,86,87
 9 1049 9 1049 193 1269 c 0,88,89
 222 1306 222 1306 222 1335 c 2,90,-1
 222 1343 l 2,91,92
 222 1607 222 1607 66 1762 c 1,93,-1
 53 1778 l 1,94,-1
 57 1778 l 1,95,96
 127 1729 127 1729 205 1729 c 0,97,98
 284 1729 284 1729 554 1832 c 1,99,-1
 644 1844 l 1,0,1
25 1807 m 1,100,-1
 41 1791 l 1,101,-1
 37 1791 l 1,102,-1
 25 1803 l 1,103,-1
 25 1807 l 1,100,-1
570 1044 m 0,104,105
 542 1044 542 1044 513 1056 c 1,106,107
 533 973 533 973 533 822 c 2,108,-1
 533 769 l 1,109,110
 583 785 583 785 644 785 c 2,111,-1
 698 785 l 1,112,-1
 792 871 l 1,113,114
 753 924 753 924 698 1072 c 1,115,-1
 694 1072 l 1,116,117
 618 1044 618 1044 570 1044 c 0,104,105
EndSplineSet
Validated: 1
EndChar

StartChar: l
Encoding: 108 108 79
Width: 819
Flags: W
LayerCount: 2
Fore
SplineSet
624 1844 m 1,0,1
 686 1844 686 1844 850 1749 c 1,2,-1
 850 1745 l 1,3,4
 762 1765 762 1765 683 1765 c 2,5,-1
 663 1765 l 2,6,7
 473 1765 473 1765 417 1633 c 1,8,-1
 413 1602 l 1,9,10
 427 1502 427 1502 497 1502 c 2,11,-1
 516 1502 l 2,12,13
 585 1502 585 1502 683 1622 c 1,14,-1
 687 1622 l 1,15,-1
 687 1618 l 1,16,17
 650 1511 650 1511 497 1399 c 1,18,19
 457 1342 457 1342 457 1328 c 0,20,21
 457 775 457 775 433 481 c 1,22,23
 447 450 447 450 477 450 c 0,24,25
 491 450 491 450 564 513 c 1,26,27
 703 589 703 589 826 597 c 1,28,-1
 826 589 l 1,29,30
 584 495 584 495 584 291 c 1,31,-1
 592 199 l 1,32,33
 432 229 432 229 107 418 c 1,34,35
 107 424 107 424 83 434 c 1,36,-1
 83 442 l 1,37,-1
 99 442 l 2,38,39
 250 442 250 442 250 910 c 1,40,-1
 246 1081 l 1,41,42
 203 1125 203 1125 159 1125 c 0,43,44
 99 1125 99 1125 4 1006 c 1,45,-1
 0 1006 l 1,46,47
 0 1062 0 1062 187 1288 c 0,48,49
 215 1324 215 1324 215 1351 c 2,50,-1
 215 1355 l 2,51,52
 215 1618 215 1618 60 1769 c 1,53,-1
 52 1780 l 1,54,-1
 56 1780 l 1,55,56
 122 1733 122 1733 199 1733 c 0,57,58
 274 1733 274 1733 536 1832 c 1,59,-1
 624 1844 l 1,0,1
24 1808 m 1,60,-1
 44 1788 l 1,61,-1
 40 1788 l 1,62,-1
 24 1804 l 1,63,-1
 24 1808 l 1,60,-1
EndSplineSet
Validated: 1
EndChar

StartChar: m
Encoding: 109 109 80
Width: 1364
Flags: W
LayerCount: 2
Fore
SplineSet
216 1493 m 1,0,-1
 220 1493 l 1,1,2
 319 1472 319 1472 583 1255 c 1,3,-1
 689 1156 l 1,4,5
 951 1406 951 1406 1098 1463 c 0,6,7
 1137 1482 1137 1482 1154 1482 c 1,8,9
 1094 1432 1094 1432 1094 1383 c 0,10,11
 1094 1313 1094 1313 1310 1145 c 1,12,-1
 1370 1077 l 1,13,-1
 1366 1073 l 1,14,15
 1335 1088 1335 1088 1306 1088 c 2,16,-1
 1294 1088 l 2,17,18
 1151 1088 1151 1088 1109 793 c 1,19,-1
 1109 728 l 2,20,21
 1109 540 1109 540 1241 467 c 1,22,23
 1272 458 1272 458 1272 452 c 0,24,25
 1272 447 1272 447 1204 422 c 1,26,27
 1120 374 1120 374 1082 270 c 1,28,-1
 1075 240 l 1,29,-1
 1067 240 l 1,30,31
 1032 354 1032 354 969 395 c 1,32,33
 864 443 864 443 825 486 c 1,34,-1
 825 490 l 1,35,-1
 836 490 l 2,36,37
 913 490 913 490 927 566 c 1,38,39
 950 617 950 617 950 982 c 2,40,-1
 950 1179 l 1,41,-1
 946 1179 l 1,42,-1
 776 1062 l 1,43,-1
 761 577 l 1,44,45
 761 398 761 398 844 361 c 1,46,47
 863 359 863 359 863 350 c 2,48,-1
 863 346 l 1,49,50
 786 330 786 330 738 274 c 0,51,52
 696 225 696 225 685 191 c 1,53,-1
 681 191 l 1,54,-1
 613 293 l 1,55,56
 560 345 560 345 503 358 c 1,57,-1
 503 365 l 1,58,59
 543 365 543 365 583 433 c 1,60,61
 606 485 606 485 606 566 c 2,62,-1
 606 611 l 1,63,64
 597 1084 597 1084 583 1084 c 1,65,-1
 420 1190 l 1,66,-1
 420 842 l 2,67,68
 420 573 420 573 462 528 c 0,69,70
 491 501 491 501 519 501 c 2,71,-1
 541 501 l 1,72,-1
 541 494 l 1,73,74
 515 462 515 462 378 392 c 1,75,76
 320 326 320 326 303 252 c 1,77,-1
 291 252 l 1,78,79
 291 328 291 328 182 422 c 1,80,-1
 95 460 l 1,81,-1
 95 467 l 1,82,83
 150 467 150 467 216 562 c 1,84,85
 261 646 261 646 261 766 c 0,86,87
 261 953 261 953 155 1065 c 1,88,89
 113 1099 113 1099 79 1099 c 2,90,-1
 68 1099 l 2,91,92
 45 1099 45 1099 0 1084 c 1,93,-1
 0 1088 l 1,94,95
 9 1111 9 1111 223 1300 c 1,96,97
 273 1354 273 1354 273 1391 c 2,98,-1
 273 1402 l 2,99,100
 273 1444 273 1444 216 1489 c 1,101,-1
 216 1493 l 1,0,-1
EndSplineSet
Validated: 1
EndChar

StartChar: n
Encoding: 110 110 81
Width: 1091
Flags: W
LayerCount: 2
Fore
SplineSet
143 1544 m 1,0,-1
 196 1548 l 1,1,2
 335 1548 335 1548 645 1319 c 1,3,4
 707 1288 707 1288 759 1280 c 1,5,6
 834 1280 834 1280 874 1403 c 1,7,-1
 878 1403 l 1,8,9
 966 1339 966 1339 966 985 c 2,10,-1
 966 941 l 1,11,-1
 962 549 l 2,12,13
 962 460 962 460 1090 351 c 1,14,15
 960 326 960 326 896 259 c 1,16,17
 847 189 847 189 847 175 c 1,18,-1
 843 175 l 2,19,20
 836 175 836 175 817 223 c 1,21,22
 721 344 721 344 614 373 c 1,23,-1
 614 386 l 1,24,25
 718 386 718 386 759 589 c 1,26,-1
 773 743 l 1,27,28
 756 1051 756 1051 737 1051 c 1,29,-1
 456 1174 l 1,30,-1
 456 549 l 1,31,32
 478 395 478 395 592 395 c 1,33,-1
 597 391 l 1,34,-1
 597 382 l 1,35,36
 447 329 447 329 385 215 c 1,37,-1
 372 184 l 1,38,-1
 368 184 l 1,39,40
 299 313 299 313 179 347 c 1,41,-1
 121 355 l 1,42,-1
 121 360 l 1,43,44
 245 470 245 470 245 553 c 2,45,-1
 249 703 l 1,46,-1
 249 782 l 2,47,48
 249 1108 249 1108 108 1108 c 0,49,50
 81 1108 81 1108 7 1077 c 1,51,52
 49 1142 49 1142 253 1315 c 1,53,54
 289 1370 289 1370 289 1385 c 2,55,-1
 289 1407 l 2,56,57
 289 1460 289 1460 143 1539 c 1,58,-1
 143 1544 l 1,0,-1
EndSplineSet
Validated: 1
EndChar

StartChar: o
Encoding: 111 111 82
Width: 967
Flags: W
LayerCount: 2
Fore
SplineSet
478 1491 m 1,0,1
 512 1421 512 1421 656 1293 c 1,2,3
 782 1199 782 1199 964 1139 c 1,4,-1
 968 1135 l 1,5,6
 873 970 873 970 873 808 c 2,7,-1
 873 800 l 2,8,9
 873 645 873 645 956 476 c 1,10,-1
 845 440 l 2,11,12
 737 403 737 403 545 219 c 1,13,14
 516 180 516 180 482 152 c 1,15,16
 254 390 254 390 186 417 c 1,17,18
 123 453 123 453 8 488 c 1,19,20
 95 658 95 658 95 815 c 0,21,22
 95 966 95 966 0 1151 c 1,23,24
 213 1218 213 1218 332 1325 c 0,25,26
 411 1391 411 1391 478 1491 c 1,0,1
470 1274 m 1,27,28
 435 1185 435 1185 336 1127 c 1,29,-1
 284 1108 l 1,30,31
 332 945 332 945 332 796 c 2,32,-1
 332 780 l 2,33,34
 332 673 332 673 292 535 c 1,35,36
 392 502 392 502 482 381 c 1,37,38
 532 482 532 482 656 539 c 1,39,40
 616 660 616 660 616 772 c 2,41,-1
 616 835 l 2,42,43
 616 928 616 928 659 1112 c 1,44,-1
 656 1112 l 1,45,46
 559 1144 559 1144 513 1214 c 1,47,48
 484 1247 484 1247 478 1274 c 1,49,-1
 470 1274 l 1,27,28
EndSplineSet
Validated: 1
EndChar

StartChar: p
Encoding: 112 112 83
Width: 1029
Flags: W
LayerCount: 2
Fore
SplineSet
262 1572 m 1,0,1
 357 1530 357 1530 357 1405 c 1,2,3
 397 1314 397 1314 509 1314 c 2,4,-1
 547 1314 l 2,5,6
 642 1314 642 1314 672 1386 c 1,7,-1
 676 1413 l 1,8,9
 676 1477 676 1477 600 1568 c 1,10,-1
 600 1572 l 1,11,-1
 604 1572 l 1,12,13
 659 1554 659 1554 813 1363 c 1,14,15
 919 1275 919 1275 1029 1253 c 1,16,-1
 1029 1245 l 1,17,18
 892 1105 892 1105 892 930 c 0,19,20
 892 793 892 793 976 611 c 1,21,-1
 972 608 l 1,22,-1
 926 608 l 2,23,24
 738 608 738 608 661 452 c 1,25,26
 507 551 507 551 402 551 c 1,27,-1
 402 547 l 1,28,-1
 395 418 l 1,29,30
 395 8 395 8 695 8 c 2,31,-1
 718 8 l 1,32,-1
 718 0 l 1,33,-1
 558 0 l 2,34,35
 345 0 345 0 125 156 c 1,36,37
 239 395 239 395 239 718 c 1,38,39
 219 1101 219 1101 122 1101 c 2,40,-1
 118 1101 l 2,41,42
 73 1101 73 1101 15 1006 c 1,43,-1
 11 1006 l 1,44,45
 0 1036 0 1036 0 1059 c 0,46,47
 0 1152 0 1152 194 1352 c 1,48,49
 277 1453 277 1453 277 1519 c 1,50,-1
 262 1572 l 1,0,1
562 1120 m 2,51,-1
 532 1120 l 2,52,53
 464 1120 464 1120 365 1185 c 1,54,-1
 361 1185 l 1,55,56
 410 983 410 983 410 725 c 1,57,-1
 414 725 l 1,58,59
 430 733 430 733 497 737 c 1,60,61
 578 737 578 737 710 680 c 1,62,-1
 710 683 l 1,63,64
 687 784 687 784 687 862 c 2,65,-1
 687 923 l 2,66,67
 687 1045 687 1045 729 1192 c 1,68,69
 639 1120 639 1120 562 1120 c 2,51,-1
EndSplineSet
Validated: 1
EndChar

StartChar: q
Encoding: 113 113 84
Width: 1010
Flags: W
LayerCount: 2
Fore
SplineSet
420 1561 m 1,0,-1
 420 1554 l 1,1,2
 349 1469 349 1469 349 1407 c 2,3,-1
 349 1396 l 2,4,5
 349 1313 349 1313 492 1302 c 1,6,7
 664 1319 664 1319 664 1411 c 0,8,9
 664 1513 664 1513 754 1561 c 1,10,-1
 758 1561 l 1,11,-1
 758 1557 l 1,12,13
 743 1530 743 1530 743 1497 c 0,14,15
 743 1419 743 1419 934 1220 c 1,16,17
 1012 1120 1012 1120 1017 1055 c 1,18,-1
 1006 1002 l 1,19,-1
 994 1002 l 1,20,21
 948 1096 948 1096 897 1096 c 0,22,23
 797 1096 797 1096 781 713 c 1,24,-1
 781 691 l 2,25,26
 781 444 781 444 856 251 c 1,27,28
 879 225 879 225 923 225 c 0,29,30
 984 229 984 229 1013 240 c 1,31,-1
 1017 236 l 1,32,-1
 1017 233 l 1,33,34
 894 139 894 139 766 86 c 0,35,36
 561 0 561 0 424 0 c 2,37,-1
 360 0 l 1,38,-1
 304 4 l 1,39,-1
 304 11 l 1,40,-1
 308 11 l 2,41,42
 509 11 509 11 574 154 c 1,43,44
 623 247 623 247 623 405 c 2,45,-1
 623 420 l 1,46,-1
 615 548 l 1,47,-1
 612 548 l 2,48,49
 509 548 509 548 368 454 c 1,50,-1
 364 454 l 1,51,52
 301 567 301 567 188 597 c 1,53,54
 122 608 122 608 53 608 c 1,55,-1
 53 612 l 1,56,57
 131 784 131 784 131 923 c 2,58,-1
 131 927 l 2,59,60
 131 1106 131 1106 0 1235 c 1,61,-1
 0 1246 l 1,62,63
 199 1304 199 1304 259 1411 c 1,64,65
 358 1534 358 1534 420 1561 c 1,0,-1
296 1186 m 1,66,-1
 296 1182 l 1,67,68
 338 1026 338 1026 338 889 c 0,69,70
 338 774 338 774 311 675 c 1,71,-1
 315 675 l 1,72,73
 425 732 425 732 522 732 c 2,74,-1
 548 732 l 1,75,-1
 612 724 l 1,76,-1
 612 781 l 2,77,78
 612 986 612 986 660 1178 c 1,79,-1
 657 1178 l 1,80,81
 552 1111 552 1111 473 1111 c 0,82,83
 385 1111 385 1111 296 1186 c 1,66,-1
EndSplineSet
Validated: 1
EndChar

StartChar: r
Encoding: 114 114 85
Width: 1084
Flags: W
LayerCount: 2
Fore
SplineSet
264 1487 m 1,0,-1
 272 1487 l 1,1,2
 272 1403 272 1403 368 1299 c 1,3,4
 442 1243 442 1243 492 1243 c 1,5,6
 580 1254 580 1254 580 1327 c 2,7,-1
 580 1363 l 2,8,9
 580 1391 580 1391 552 1483 c 1,10,-1
 556 1483 l 1,11,12
 718 1406 718 1406 876 1275 c 0,13,14
 914 1246 914 1246 956 1127 c 1,15,-1
 984 1099 l 1,16,-1
 1000 1099 l 2,17,18
 1026 1099 1026 1099 1068 1175 c 1,19,-1
 1072 1175 l 1,20,-1
 1072 1095 l 2,21,22
 1072 1007 1072 1007 992 987 c 1,23,24
 803 905 803 905 748 759 c 1,25,-1
 744 747 l 1,26,-1
 736 747 l 1,27,28
 756 863 756 863 756 951 c 0,29,30
 756 1163 756 1163 616 1163 c 0,31,32
 562 1163 562 1163 464 1123 c 1,33,-1
 464 1031 l 2,34,35
 464 357 464 357 692 199 c 1,36,-1
 768 175 l 1,37,-1
 768 167 l 1,38,-1
 688 163 l 1,39,-1
 560 163 l 2,40,41
 243 163 243 163 80 423 c 1,42,-1
 84 427 l 1,43,-1
 88 427 l 1,44,45
 108 415 108 415 140 415 c 2,46,-1
 156 415 l 2,47,48
 252 415 252 415 252 639 c 0,49,50
 252 810 252 810 200 1063 c 1,51,52
 181 1089 181 1089 148 1095 c 1,53,54
 63 1095 63 1095 28 939 c 1,55,-1
 28 935 l 1,56,-1
 24 935 l 2,57,58
 8 935 8 935 0 1051 c 1,59,60
 0 1168 0 1168 124 1263 c 1,61,62
 264 1421 264 1421 264 1487 c 1,0,-1
EndSplineSet
Validated: 1
EndChar

StartChar: s
Encoding: 115 115 86
Width: 1123
Flags: W
LayerCount: 2
Fore
SplineSet
541 1440 m 1,0,-1
 550 1440 l 1,1,2
 622 1297 622 1297 757 1297 c 2,3,-1
 760 1297 l 2,4,5
 894 1297 894 1297 1093 1440 c 1,6,-1
 1096 1440 l 1,7,8
 1011 1336 1011 1336 918 1154 c 1,9,10
 850 1048 850 1048 766 1002 c 1,11,-1
 699 982 l 1,12,-1
 696 985 l 1,13,-1
 696 988 l 1,14,15
 757 1073 757 1073 757 1160 c 2,16,-1
 757 1163 l 1,17,-1
 710 1160 l 1,18,19
 543 1160 543 1160 349 1227 c 1,20,-1
 349 1224 l 1,21,-1
 346 1154 l 1,22,-1
 346 1137 l 1,23,-1
 343 932 l 1,24,25
 471 909 471 909 565 909 c 2,26,-1
 585 909 l 2,27,28
 876 909 876 909 1008 1113 c 1,29,-1
 1014 1113 l 1,30,31
 959 930 959 930 959 807 c 2,32,-1
 959 781 l 2,33,34
 959 660 959 660 1011 632 c 1,35,-1
 1020 632 l 2,36,37
 1068 632 1068 632 1102 769 c 1,38,-1
 1104 769 l 1,39,40
 1122 746 1122 746 1122 705 c 2,41,-1
 1122 681 l 2,42,43
 1122 602 1122 602 924 500 c 1,44,45
 862 448 862 448 818 375 c 1,46,47
 658 177 658 177 547 156 c 1,48,-1
 547 159 l 1,49,50
 608 239 608 239 608 287 c 0,51,52
 608 357 608 357 506 357 c 0,53,54
 396 357 396 357 308 276 c 1,55,56
 276 232 276 232 276 206 c 1,57,-1
 270 206 l 1,58,59
 191 336 191 336 191 430 c 0,60,61
 191 590 191 590 395 708 c 1,62,-1
 398 705 l 1,63,-1
 398 702 l 1,64,65
 372 646 372 646 372 597 c 0,66,67
 372 528 372 528 410 480 c 1,68,69
 493 521 493 521 728 521 c 1,70,-1
 795 518 l 1,71,-1
 818 518 l 1,72,73
 780 631 780 631 780 705 c 0,74,75
 783 755 783 755 798 813 c 1,76,77
 704 789 704 789 635 789 c 2,78,-1
 597 789 l 1,79,-1
 474 798 l 1,80,-1
 471 798 l 2,81,82
 301 798 301 798 205 632 c 1,83,-1
 197 632 l 1,84,85
 165 701 165 701 165 772 c 2,86,-1
 165 781 l 2,87,88
 165 803 165 803 179 859 c 1,89,-1
 179 924 l 1,90,91
 172 1032 172 1032 127 1032 c 2,92,-1
 124 1032 l 2,93,94
 84 1032 84 1032 13 970 c 1,95,-1
 7 970 l 1,96,-1
 7 979 l 2,97,98
 7 1123 7 1123 112 1169 c 1,99,100
 261 1224 261 1224 413 1315 c 1,101,102
 509 1381 509 1381 541 1440 c 1,0,-1
EndSplineSet
Validated: 1
EndChar

StartChar: t
Encoding: 116 116 87
Width: 990
Flags: W
LayerCount: 2
Fore
SplineSet
508 1844 m 0,0,1
 640 1844 640 1844 799 1691 c 1,2,-1
 799 1687 l 1,3,-1
 719 1691 l 1,4,5
 543 1691 543 1691 481 1521 c 0,6,7
 445 1422 445 1422 445 1310 c 2,8,-1
 445 1234 l 2,9,10
 445 1086 445 1086 463 1086 c 2,11,-1
 485 1081 l 1,12,-1
 548 1081 l 2,13,14
 620 1081 620 1081 669 1162 c 1,15,-1
 678 1162 l 1,16,-1
 674 1059 l 1,17,18
 674 946 674 946 732 821 c 1,19,-1
 728 821 l 1,20,21
 627 897 627 897 535 897 c 2,22,-1
 508 897 l 1,23,-1
 485 893 l 1,24,-1
 485 803 l 2,25,26
 485 684 485 684 414 507 c 1,27,28
 496 435 496 435 589 435 c 2,29,-1
 620 435 l 1,30,31
 895 594 895 594 939 754 c 1,32,33
 965 825 965 825 965 888 c 1,34,-1
 974 888 l 1,35,36
 992 799 992 799 992 731 c 2,37,-1
 992 691 l 2,38,39
 992 543 992 543 867 453 c 1,40,41
 695 273 695 273 669 175 c 1,42,-1
 660 175 l 1,43,44
 418 206 418 206 -8 471 c 1,45,-1
 -8 485 l 1,46,47
 111 518 111 518 167 615 c 1,48,49
 207 701 207 701 207 812 c 2,50,-1
 207 852 l 1,51,-1
 203 884 l 1,52,-1
 171 884 l 2,53,54
 125 884 125 884 82 852 c 1,55,-1
 77 857 l 1,56,57
 109 919 109 919 109 947 c 2,58,-1
 109 973 l 2,59,60
 109 1023 109 1023 41 1068 c 1,61,-1
 46 1068 l 1,62,-1
 136 1059 l 1,63,64
 212 1059 212 1059 212 1108 c 2,65,-1
 221 1234 l 1,66,67
 221 1473 221 1473 28 1588 c 1,68,-1
 28 1593 l 2,69,70
 29 1599 29 1599 113 1633 c 1,71,72
 394 1830 394 1830 427 1830 c 1,73,74
 475 1844 475 1844 508 1844 c 0,0,1
EndSplineSet
Validated: 1
EndChar

StartChar: u
Encoding: 117 117 88
Width: 1068
Flags: W
LayerCount: 2
Fore
SplineSet
823 1501 m 1,0,1
 860 1435 860 1435 882 1416 c 1,2,3
 923 1361 923 1361 1061 1331 c 1,4,-1
 1061 1327 l 1,5,6
 937 1230 937 1230 937 1140 c 2,7,-1
 942 761 l 1,8,-1
 942 719 l 2,9,10
 942 400 942 400 865 319 c 1,11,-1
 852 315 l 1,12,13
 814 434 814 434 742 434 c 0,14,15
 677 434 677 434 393 239 c 1,16,17
 284 179 284 179 223 179 c 2,18,-1
 147 179 l 1,19,-1
 147 183 l 1,20,21
 287 260 287 260 287 311 c 2,22,-1
 287 332 l 2,23,24
 287 384 287 384 75 557 c 1,25,-1
 15 630 l 1,26,-1
 24 630 l 1,27,28
 80 600 80 600 117 600 c 0,29,30
 213 600 213 600 240 791 c 1,31,-1
 249 923 l 1,32,-1
 249 991 l 2,33,34
 249 1220 249 1220 215 1220 c 1,35,36
 215 1232 215 1232 126 1322 c 1,37,-1
 126 1327 l 1,38,39
 223 1327 223 1327 325 1429 c 1,40,-1
 364 1492 l 1,41,-1
 368 1492 l 1,42,43
 400 1397 400 1397 521 1327 c 1,44,-1
 585 1301 l 1,45,-1
 585 1297 l 1,46,-1
 525 1276 l 1,47,48
 449 1222 449 1222 449 1140 c 2,49,-1
 449 536 l 1,50,-1
 453 536 l 1,51,52
 721 654 721 654 729 664 c 1,53,54
 746 776 746 776 755 948 c 1,55,56
 755 1229 755 1229 636 1288 c 1,57,-1
 602 1297 l 1,58,-1
 602 1310 l 1,59,60
 750 1363 750 1363 806 1475 c 0,61,62
 816 1501 816 1501 823 1501 c 1,0,1
EndSplineSet
Validated: 1
EndChar

StartChar: v
Encoding: 118 118 89
Width: 1169
Flags: W
LayerCount: 2
Fore
SplineSet
308 1524 m 1,0,-1
 312 1524 l 1,1,2
 322 1518 322 1518 350 1440 c 1,3,4
 384 1366 384 1366 481 1279 c 1,5,-1
 507 1258 l 1,6,-1
 443 1228 l 2,7,8
 401 1211 401 1211 401 1114 c 1,9,-1
 384 722 l 1,10,11
 536 583 536 583 574 485 c 2,12,-1
 583 464 l 1,13,-1
 587 464 l 1,14,15
 601 539 601 539 794 709 c 1,16,-1
 798 709 l 1,17,18
 780 1137 780 1137 773 1178 c 1,19,20
 727 1233 727 1233 671 1241 c 1,21,-1
 671 1245 l 1,22,23
 812 1345 812 1345 861 1511 c 1,24,-1
 874 1511 l 1,25,26
 917 1353 917 1353 1064 1237 c 1,27,28
 959 1202 959 1202 959 1148 c 2,29,-1
 959 755 l 1,30,-1
 1182 810 l 1,31,-1
 1182 806 l 1,32,33
 749 519 749 519 595 101 c 1,34,-1
 587 101 l 1,35,36
 494 345 494 345 287 574 c 1,37,38
 137 716 137 716 0 819 c 1,39,-1
 0 823 l 1,40,-1
 220 772 l 1,41,-1
 220 777 l 1,42,-1
 224 1161 l 2,43,44
 224 1212 224 1212 127 1245 c 1,45,-1
 118 1245 l 1,46,-1
 118 1258 l 1,47,48
 244 1334 244 1334 308 1524 c 1,0,-1
EndSplineSet
Validated: 1
EndChar

StartChar: w
Encoding: 119 119 90
Width: 1450
Flags: W
LayerCount: 2
Fore
SplineSet
695 1535 m 1,0,1
 737 1432 737 1432 842 1384 c 1,2,-1
 877 1376 l 1,3,-1
 877 1372 l 1,4,5
 776 1321 776 1321 776 1210 c 1,6,-1
 772 1132 l 1,7,-1
 788 640 l 1,8,-1
 962 524 l 1,9,-1
 966 524 l 1,10,-1
 966 725 l 2,11,12
 966 1123 966 1123 935 1183 c 0,13,14
 907 1229 907 1229 850 1229 c 2,15,-1
 838 1229 l 1,16,-1
 838 1233 l 1,17,18
 888 1281 888 1281 1001 1338 c 1,19,20
 1045 1366 1045 1366 1086 1485 c 1,21,-1
 1094 1485 l 1,22,23
 1116 1388 1116 1388 1175 1338 c 1,24,25
 1262 1272 1262 1272 1295 1272 c 1,26,-1
 1295 1268 l 2,27,28
 1295 1260 1295 1260 1268 1256 c 1,29,30
 1129 1178 1129 1178 1129 985 c 2,31,-1
 1129 935 l 2,32,33
 1129 769 1129 769 1233 652 c 1,34,35
 1273 617 1273 617 1318 617 c 2,36,-1
 1330 617 l 2,37,38
 1361 617 1361 617 1392 632 c 1,39,-1
 1396 628 l 1,40,-1
 1396 624 l 1,41,42
 1328 551 1328 551 1156 404 c 1,43,44
 1114 343 1114 343 1113 314 c 0,45,46
 1113 265 1113 265 1175 214 c 1,47,-1
 1167 214 l 1,48,49
 1020 249 1020 249 695 547 c 1,50,51
 364 234 364 234 214 202 c 1,52,-1
 214 206 l 1,53,54
 272 252 272 252 272 295 c 2,55,-1
 272 307 l 2,56,57
 272 377 272 377 51 551 c 1,58,-1
 -7 617 l 1,59,-1
 -7 621 l 1,60,61
 40 605 40 605 63 605 c 2,62,-1
 74 605 l 2,63,64
 187 605 187 605 249 834 c 1,65,66
 260 904 260 904 260 954 c 0,67,68
 260 1189 260 1189 98 1252 c 1,69,-1
 90 1252 l 1,70,-1
 90 1256 l 1,71,-1
 179 1299 l 1,72,73
 291 1395 291 1395 291 1473 c 1,74,-1
 303 1473 l 1,75,76
 336 1358 336 1358 404 1314 c 1,77,78
 528 1256 528 1256 547 1225 c 1,79,-1
 547 1217 l 1,80,-1
 524 1217 l 2,81,82
 447 1217 447 1217 435 1090 c 1,83,84
 423 1019 423 1019 423 869 c 2,85,-1
 423 512 l 1,86,87
 598 624 598 624 598 636 c 2,88,-1
 613 1105 l 1,89,-1
 613 1152 l 2,90,91
 613 1301 613 1301 543 1341 c 1,92,-1
 508 1357 l 1,93,-1
 508 1361 l 1,94,-1
 570 1388 l 1,95,96
 655 1457 655 1457 687 1535 c 1,97,-1
 695 1535 l 1,0,1
EndSplineSet
Validated: 1
EndChar

StartChar: x
Encoding: 120 120 91
Width: 1294
Flags: W
LayerCount: 2
Fore
SplineSet
366 1461 m 1,0,-1
 366 1453 l 1,1,2
 318 1365 318 1365 318 1292 c 0,3,4
 318 1256 318 1256 417 1174 c 1,5,-1
 673 934 l 1,6,7
 1003 1328 1003 1328 1003 1339 c 2,8,-1
 1003 1347 l 2,9,10
 1003 1387 1003 1387 956 1453 c 1,11,-1
 956 1457 l 1,12,-1
 960 1457 l 1,13,14
 1047 1419 1047 1419 1239 1213 c 1,15,-1
 1310 1119 l 1,16,-1
 1310 1115 l 1,17,-1
 1306 1115 l 1,18,19
 1164 1249 1164 1249 1090 1249 c 1,20,21
 775 857 775 857 775 847 c 1,22,-1
 1082 587 l 1,23,-1
 1117 580 l 1,24,-1
 1149 580 l 2,25,26
 1193 581 1193 581 1259 643 c 1,27,-1
 1263 643 l 1,28,29
 1263 543 1263 543 1019 277 c 1,30,-1
 932 194 l 1,31,-1
 928 198 l 1,32,33
 976 288 976 288 976 347 c 2,34,-1
 976 363 l 2,35,36
 976 407 976 407 881 473 c 1,37,-1
 617 698 l 1,38,-1
 283 284 l 1,39,-1
 283 277 l 2,40,41
 283 260 283 260 342 198 c 1,42,-1
 342 194 l 1,43,-1
 338 194 l 1,44,45
 164 289 164 289 -16 540 c 1,46,-1
 -12 540 l 1,47,48
 139 395 139 395 212 395 c 1,49,-1
 539 784 l 1,50,-1
 539 788 l 1,51,52
 222 1071 222 1071 204 1071 c 2,53,-1
 181 1075 l 1,54,-1
 149 1075 l 2,55,56
 103 1075 103 1075 35 1012 c 1,57,-1
 31 1012 l 1,58,59
 53 1139 53 1139 263 1363 c 0,60,61
 352 1457 352 1457 366 1461 c 1,0,-1
EndSplineSet
Validated: 1
EndChar

StartChar: y
Encoding: 121 121 92
Width: 1024
Flags: W
LayerCount: 2
Fore
SplineSet
400 1516 m 1,0,-1
 404 1512 l 1,1,2
 344 1387 344 1387 344 1208 c 2,3,-1
 344 1196 l 2,4,5
 344 1028 344 1028 396 832 c 1,6,7
 508 884 508 884 616 884 c 1,8,-1
 716 876 l 1,9,-1
 716 916 l 1,10,-1
 720 952 l 1,11,12
 720 1211 720 1211 604 1496 c 1,13,-1
 612 1496 l 1,14,15
 702 1364 702 1364 852 1264 c 0,16,17
 927 1218 927 1218 1020 1192 c 1,18,-1
 1020 1184 l 1,19,20
 900 1032 900 1032 900 844 c 2,21,-1
 900 816 l 2,22,23
 900 665 900 665 988 456 c 1,24,25
 773 388 773 388 648 272 c 1,26,27
 580 202 580 202 580 148 c 1,28,29
 598 68 598 68 696 68 c 1,30,-1
 732 64 l 1,31,-1
 760 64 l 1,32,-1
 760 52 l 1,33,34
 670 0 670 0 592 0 c 0,35,36
 518 0 518 0 372 104 c 1,37,38
 284 157 284 157 204 164 c 1,39,40
 114 164 114 164 84 56 c 1,41,-1
 76 8 l 1,42,-1
 76 4 l 1,43,-1
 64 4 l 1,44,45
 12 146 12 146 12 252 c 0,46,47
 12 478 12 478 240 624 c 1,48,-1
 248 624 l 1,49,-1
 248 620 l 1,50,51
 184 485 184 485 184 416 c 2,52,-1
 184 396 l 2,53,54
 184 252 184 252 396 252 c 2,55,-1
 408 252 l 2,56,57
 480 252 480 252 480 280 c 1,58,59
 620 456 620 456 728 492 c 1,60,-1
 776 512 l 1,61,-1
 776 516 l 1,62,63
 740 573 740 573 720 724 c 1,64,65
 679 740 679 740 624 740 c 2,66,-1
 604 740 l 2,67,68
 472 740 472 740 416 568 c 1,69,-1
 416 564 l 1,70,-1
 404 564 l 1,71,72
 348 736 348 736 232 736 c 2,73,-1
 220 736 l 1,74,-1
 180 732 l 1,75,-1
 176 736 l 1,76,77
 192 850 192 850 192 928 c 2,78,-1
 192 976 l 2,79,80
 192 1148 192 1148 92 1148 c 0,81,82
 71 1148 71 1148 0 1116 c 1,83,-1
 0 1120 l 1,84,85
 169 1371 169 1371 400 1516 c 1,0,-1
EndSplineSet
Validated: 1
EndChar

StartChar: z
Encoding: 122 122 93
Width: 1091
Flags: W
LayerCount: 2
Fore
SplineSet
356 1485 m 1,0,-1
 359 1481 l 1,1,-1
 359 1478 l 1,2,3
 290 1410 290 1410 290 1365 c 2,4,-1
 290 1354 l 2,5,6
 290 1278 290 1278 512 1278 c 1,7,-1
 878 1296 l 1,8,9
 985 1296 985 1296 1059 1191 c 0,10,11
 1088 1145 1088 1145 1088 1082 c 2,12,-1
 1088 1068 l 2,13,14
 1088 997 1088 997 1041 937 c 1,15,16
 1004 1075 1004 1075 936 1075 c 2,17,-1
 929 1075 l 2,18,19
 870 1075 870 1075 718 886 c 1,20,-1
 357 486 l 1,21,-1
 377 501 l 1,22,-1
 533 516 l 1,23,24
 707 469 707 469 824 451 c 1,25,26
 897 451 897 451 907 556 c 1,27,-1
 907 567 l 2,28,29
 907 630 907 630 867 767 c 1,30,-1
 867 770 l 1,31,32
 991 615 991 615 991 480 c 0,33,34
 991 287 991 287 766 132 c 1,35,-1
 762 136 l 1,36,37
 777 161 777 161 777 201 c 2,38,-1
 777 212 l 2,39,40
 777 318 777 318 555 361 c 1,41,-1
 475 364 l 1,42,43
 286 364 286 364 211 266 c 0,44,45
 196 242 196 242 196 215 c 0,46,47
 196 192 196 192 211 154 c 1,48,-1
 207 150 l 1,49,-1
 193 150 l 2,50,51
 56 150 56 150 4 259 c 1,52,-1
 -7 321 l 1,53,54
 -7 451 -7 451 171 614 c 1,55,-1
 650 1111 l 1,56,-1
 584 1111 l 2,57,58
 527 1111 527 1111 345 1159 c 1,59,-1
 309 1166 l 1,60,61
 231 1166 231 1166 109 1006 c 1,62,63
 47 916 47 916 47 839 c 1,64,-1
 40 839 l 1,65,66
 22 960 22 960 18 1032 c 1,67,68
 18 1354 18 1354 280 1460 c 1,69,-1
 356 1485 l 1,0,-1
EndSplineSet
Validated: 1
EndChar

